<svg width="30" height="30" viewBox="0 0 30 30" fill="none" xmlns="http://www.w3.org/2000/svg">
<path d="M15.0002 0.833374C22.8244 0.833374 29.1668 7.17579 29.1668 15C29.1668 22.8243 22.8244 29.1667 15.0002 29.1667C7.17591 29.1667 0.833496 22.8243 0.833496 15C0.833496 7.17579 7.17591 0.833374 15.0002 0.833374ZM15.0002 7.91671C14.7434 7.91672 14.4953 8.0097 14.3018 8.17846C14.1083 8.34722 13.9825 8.58034 13.9476 8.83471L13.9377 8.97921V13.9375H8.97933C8.71013 13.9376 8.451 14.0399 8.25429 14.2237C8.05759 14.4075 7.93798 14.659 7.91963 14.9276C7.90128 15.1962 7.98556 15.4617 8.15544 15.6706C8.32533 15.8794 8.56814 16.0159 8.83483 16.0526L8.97933 16.0625H13.9377V21.0209C13.9377 21.2901 14.04 21.5492 14.2238 21.7459C14.4076 21.9426 14.6592 22.0622 14.9277 22.0806C15.1963 22.0989 15.4618 22.0146 15.6707 21.8448C15.8795 21.6749 16.0161 21.4321 16.0527 21.1654L16.0627 21.0209V16.0625H21.021C21.2902 16.0625 21.5493 15.9602 21.746 15.7764C21.9427 15.5926 22.0624 15.341 22.0807 15.0725C22.0991 14.8039 22.0148 14.5384 21.8449 14.3295C21.675 14.1207 21.4322 13.9842 21.1655 13.9475L21.021 13.9375H16.0627V8.97921C16.0627 8.69742 15.9507 8.42717 15.7515 8.22791C15.5522 8.02865 15.282 7.91671 15.0002 7.91671Z" fill="black"/>
</svg>
