<svg width="30" height="26" viewBox="0 0 30 26" fill="none" xmlns="http://www.w3.org/2000/svg">
<path d="M0.833252 1.65675C0.835845 1.2847 0.984694 0.928608 1.24765 0.665392C1.5106 0.402175 1.86654 0.252967 2.23859 0.25H27.7612C28.5376 0.25 29.1666 0.880417 29.1666 1.65675V24.3432C29.164 24.7153 29.0151 25.0714 28.7522 25.3346C28.4892 25.5978 28.1333 25.747 27.7612 25.75H2.23859C1.86574 25.7496 1.50829 25.6012 1.24478 25.3375C0.981268 25.0737 0.833252 24.7161 0.833252 24.3432V1.65675ZM14.9999 17.25C13.8727 17.25 12.7917 16.8022 11.9947 16.0052C11.1977 15.2082 10.7499 14.1272 10.7499 13C10.7499 11.8728 11.1977 10.7918 11.9947 9.9948C12.7917 9.19777 13.8727 8.75 14.9999 8.75C16.1271 8.75 17.2081 9.19777 18.0051 9.9948C18.8022 10.7918 19.2499 11.8728 19.2499 13C19.2499 14.1272 18.8022 15.2082 18.0051 16.0052C17.2081 16.8022 16.1271 17.25 14.9999 17.25ZM14.9999 20.0833C16.8785 20.0833 18.6802 19.3371 20.0086 18.0087C21.337 16.6803 22.0833 14.8786 22.0833 13C22.0833 11.1214 21.337 9.31971 20.0086 7.99133C18.6802 6.66294 16.8785 5.91667 14.9999 5.91667C13.1213 5.91667 11.3196 6.66294 9.99125 7.99133C8.66286 9.31971 7.91658 11.1214 7.91658 13C7.91658 14.8786 8.66286 16.6803 9.99125 18.0087C11.3196 19.3371 13.1213 20.0833 14.9999 20.0833ZM23.4999 3.08333V5.91667H26.3333V3.08333H23.4999Z" fill="black"/>
</svg>
