<svg width="26" height="30" viewBox="0 0 26 30" fill="none" xmlns="http://www.w3.org/2000/svg">
<path d="M25.75 10.7499V27.74C25.7513 27.926 25.716 28.1105 25.646 28.2829C25.576 28.4553 25.4727 28.6122 25.3421 28.7446C25.2115 28.8771 25.056 28.9826 24.8846 29.055C24.7133 29.1274 24.5293 29.1653 24.3432 29.1666H1.65675C1.2839 29.1666 0.926304 29.0186 0.662528 28.7551C0.398752 28.4915 0.250375 28.1341 0.25 27.7612V2.23859C0.25 1.47784 0.88325 0.833252 1.66383 0.833252H15.8333V9.33325C15.8333 9.70897 15.9826 10.0693 16.2483 10.335C16.5139 10.6007 16.8743 10.7499 17.25 10.7499H25.75ZM25.75 7.91658H18.6667V0.837502L25.75 7.91658ZM7.33333 7.91658V10.7499H11.5833V7.91658H7.33333ZM7.33333 13.5833V16.4166H18.6667V13.5833H7.33333ZM7.33333 19.2499V22.0833H18.6667V19.2499H7.33333Z" fill="black"/>
</svg>
