<svg width="145" height="145" viewBox="0 0 145 145" fill="none" xmlns="http://www.w3.org/2000/svg">
<path d="M72.11 144.625C111.935 144.625 144.22 125.986 144.22 102.994C144.22 80.0021 111.935 61.3635 72.11 61.3635C32.2847 61.3635 0 80.0021 0 102.994C0 125.986 32.2847 144.625 72.11 144.625Z" fill="#F5F5F5"/>
<path d="M74.3901 83.9667L33.6128 107.517C32.4647 108.179 30.4761 108.097 29.1367 107.332L14.6544 98.9728C13.3276 98.2074 13.1833 97.05 14.3408 96.3881L55.1181 72.8376C56.2661 72.1758 58.2548 72.2605 59.5942 73.0227L74.0733 81.3821C75.3938 82.1474 75.5475 83.3049 74.3901 83.9667Z" fill="#E0E0E0"/>
<path d="M96.808 115.299C112.586 115.299 125.377 107.915 125.377 98.8065C125.377 89.6977 112.586 82.3136 96.808 82.3136C81.0296 82.3136 68.2388 89.6977 68.2388 98.8065C68.2388 107.915 81.0296 115.299 96.808 115.299Z" fill="#E0E0E0"/>
<path d="M70.469 123.423C77.932 123.423 83.982 119.931 83.982 115.622C83.982 111.314 77.932 107.821 70.469 107.821C63.006 107.821 56.9561 111.314 56.9561 115.622C56.9561 119.931 63.006 123.423 70.469 123.423Z" fill="#E0E0E0"/>
<path d="M128.812 103.791C131.974 105.616 131.974 108.577 128.812 110.403C125.65 112.228 120.519 112.228 117.357 110.403C114.195 108.577 114.195 105.616 117.357 103.791C120.519 101.965 125.647 101.975 128.812 103.791Z" fill="#E0E0E0"/>
<path d="M123.342 88.675C121.529 100.372 109.744 112.756 91.6922 109.299C91.5134 109.268 91.3346 109.233 91.159 109.195C90.7857 109.117 90.4093 109.035 90.0329 108.941C71.0432 104.377 69.707 92.0783 70.5382 86.7239C71.3694 81.3696 76.316 77.0628 79.2394 75.3565C82.1629 73.6501 85.7858 71.7179 89.117 66.3353C92.1376 61.442 96.987 58.5123 104.217 59.0048L104.86 59.0549C105.378 59.1051 105.914 59.1741 106.46 59.2557C106.46 59.2557 127.495 61.8937 123.342 88.675Z" fill="#30319D"/>
<path opacity="0.6" d="M123.342 88.675C121.529 100.372 109.744 112.756 91.6922 109.299C91.5134 109.268 91.3346 109.233 91.159 109.195C90.7857 109.117 90.4093 109.035 90.0329 108.941C71.0432 104.377 69.707 92.0783 70.5382 86.7239C71.3694 81.3696 76.316 77.0628 79.2394 75.3565C82.1629 73.6501 85.7858 71.7179 89.117 66.3353C92.1376 61.442 96.987 58.5123 104.217 59.0048L104.86 59.0549C105.378 59.1051 105.914 59.1741 106.46 59.2557C106.46 59.2557 127.495 61.8937 123.342 88.675Z" fill="white"/>
<path d="M118.878 87.9849C117.143 99.183 107.024 111.128 91.6919 109.315C91.5131 109.283 91.3343 109.249 91.1587 109.211C106.168 110.676 116.058 98.885 117.771 87.828C121.202 65.7079 108.674 60.25 104.217 59.0204C103.806 58.9044 103.464 58.8291 103.207 58.7758L103.803 58.8604C104.159 58.9112 104.512 58.9814 104.86 59.0706C108.831 60.0242 122.438 65.0398 118.878 87.9849Z" fill="#30319D"/>
<path opacity="0.4" d="M118.878 87.9849C117.143 99.183 107.024 111.128 91.6919 109.315C91.5131 109.283 91.3343 109.249 91.1587 109.211C106.168 110.676 116.058 98.885 117.771 87.828C121.202 65.7079 108.674 60.25 104.217 59.0204C103.806 58.9044 103.464 58.8291 103.207 58.7758L103.803 58.8604C104.159 58.9112 104.512 58.9814 104.86 59.0706C108.831 60.0242 122.438 65.0398 118.878 87.9849Z" fill="white"/>
<path d="M108.396 87.3074C108.396 87.3074 118.483 63.9702 102.141 63.9702C102.141 63.9702 93.3144 61.7149 89.4813 72.5743C85.6483 83.4336 74.7388 80.6137 74.7388 89.2428C74.7388 94.4654 76.9815 100.409 78.8447 104.28C80.4006 105.322 82.0554 106.208 83.7851 106.924L83.8572 106.874C83.8572 106.874 84.5096 101.473 88.4462 98.8317C92.3828 96.1906 101.178 93.5997 104.07 91.4197C106.802 89.3651 112.436 90.0615 113.345 91.4887C112.875 90.5006 111.106 87.0157 108.396 87.3074Z" fill="#30319D"/>
<path opacity="0.4" d="M108.396 87.3074C108.396 87.3074 118.483 63.9702 102.141 63.9702C102.141 63.9702 93.3144 61.7149 89.4813 72.5743C85.6483 83.4336 74.7388 80.6137 74.7388 89.2428C74.7388 94.4654 76.9815 100.409 78.8447 104.28C80.4006 105.322 82.0554 106.208 83.7851 106.924L83.8572 106.874C83.8572 106.874 84.5096 101.473 88.4462 98.8317C92.3828 96.1906 101.178 93.5997 104.07 91.4197C106.802 89.3651 112.436 90.0615 113.345 91.4887C112.875 90.5006 111.106 87.0157 108.396 87.3074Z" fill="white"/>
<path d="M113.333 91.4886C113.405 91.6518 113.445 91.749 113.445 91.749C113.423 91.6563 113.385 91.5682 113.333 91.4886Z" fill="#30319D"/>
<path d="M74.8174 92.9661L75.5953 104.923C75.5953 104.923 80.498 105.453 79.9114 101.636C79.9114 101.636 79.6667 101.234 79.7232 100.293C79.7797 99.3524 80.8807 94.4466 80.9214 92.9159L74.8174 92.9661Z" fill="#FFA8A7"/>
<path d="M75.4534 102.771L76.0651 103.226L80.5506 93.8255L79.917 92.9253L79.3053 92.9316L78.1761 93.8255L75.2715 99.9829L75.4534 102.771Z" fill="#F28F8F"/>
<path d="M75.2972 104.967C75.2972 104.967 74.284 103 75.7363 102.486C77.1886 101.972 78.1046 102.486 78.2018 103.029C78.299 103.571 78.3618 104.365 78.3618 104.365C79.1373 103.629 79.6766 102.679 79.9113 101.636C79.9113 101.636 82.1635 103.618 81.9815 104.647C81.7996 105.676 80.0744 107.878 79.8611 108.568C79.6478 109.258 79.124 113.521 77.0036 114.136C74.8832 114.751 71.8656 114.763 72.6122 112.348C72.8662 111.514 74.1805 110.535 74.4785 109.713C74.7765 108.891 75.2972 104.967 75.2972 104.967Z" fill="#30319D"/>
<path d="M79.0509 111.645C78.6859 110.807 78.0482 110.116 77.2414 109.686C76.4345 109.255 75.5059 109.11 74.6062 109.274C74.5623 109.462 74.5215 109.613 74.487 109.713C74.189 110.535 72.8747 111.513 72.6206 112.348C71.8804 114.776 74.8979 114.75 77.012 114.136C77.9938 113.85 78.6337 112.781 79.0603 111.645H79.0509Z" fill="#EBEBEB"/>
<path d="M81.73 103.738C81.7608 103.855 81.7672 103.978 81.7488 104.098C81.5449 105.171 79.7068 107.448 79.4747 108.176C79.2426 108.904 78.6309 113.342 76.4039 113.957C75.3816 114.257 74.3095 114.347 73.2515 114.224C74.1674 114.663 75.742 114.506 77.0155 114.142C79.1359 113.515 79.6629 109.268 79.8731 108.574C80.0832 107.881 81.8147 105.682 81.9935 104.653C82.0107 104.327 81.9179 104.005 81.73 103.738Z" fill="#263238"/>
<path d="M77.8683 105.566C77.8293 105.566 77.7921 105.55 77.7647 105.522C76.7641 104.525 75.4091 105.077 75.3526 105.099C75.3173 105.114 75.2774 105.114 75.2418 105.1C75.2062 105.085 75.1778 105.057 75.1628 105.022C75.1479 104.987 75.1475 104.947 75.162 104.911C75.1764 104.876 75.2043 104.847 75.2397 104.832C75.2554 104.832 76.8269 104.18 77.9718 105.315C77.9921 105.336 78.0059 105.362 78.0115 105.39C78.017 105.419 78.0141 105.448 78.0031 105.475C77.992 105.502 77.9734 105.525 77.9494 105.541C77.9254 105.557 77.8972 105.566 77.8683 105.566Z" fill="#EBEBEB"/>
<path d="M77.7434 106.68C77.7248 106.68 77.7063 106.676 77.6891 106.669C77.6719 106.662 77.6562 106.652 77.643 106.639C76.6392 105.642 75.2842 106.19 75.2277 106.216C75.21 106.223 75.191 106.227 75.1717 106.228C75.1524 106.228 75.1333 106.224 75.1155 106.217C75.0976 106.209 75.0815 106.199 75.0679 106.185C75.0543 106.171 75.0436 106.155 75.0364 106.137C75.0217 106.101 75.0217 106.061 75.0364 106.025C75.0511 105.99 75.0792 105.961 75.1148 105.946C75.1148 105.946 76.7051 105.293 77.8469 106.432C77.8739 106.459 77.889 106.496 77.889 106.534C77.889 106.572 77.8739 106.609 77.8469 106.636C77.8338 106.65 77.8178 106.662 77.7999 106.669C77.782 106.677 77.7628 106.68 77.7434 106.68Z" fill="#EBEBEB"/>
<path d="M77.5805 107.778C77.5615 107.778 77.5425 107.775 77.5247 107.768C77.5069 107.761 77.4907 107.75 77.477 107.737C76.4733 106.736 75.1214 107.288 75.0649 107.313C75.0299 107.325 74.9919 107.323 74.9584 107.308C74.9248 107.292 74.8981 107.265 74.8836 107.232C74.869 107.198 74.8677 107.16 74.8797 107.125C74.8918 107.09 74.9165 107.061 74.9488 107.044C74.9645 107.044 76.5391 106.391 77.6809 107.53C77.6951 107.543 77.7064 107.558 77.7142 107.576C77.7219 107.594 77.7259 107.613 77.7259 107.632C77.7259 107.651 77.7219 107.67 77.7142 107.687C77.7064 107.705 77.6951 107.721 77.6809 107.734C77.6682 107.748 77.6527 107.759 77.6354 107.766C77.6181 107.774 77.5994 107.778 77.5805 107.778Z" fill="#EBEBEB"/>
<path d="M77.3512 108.891C77.3122 108.891 77.275 108.875 77.2477 108.847C76.2439 107.85 74.892 108.402 74.8355 108.424C74.818 108.431 74.7992 108.435 74.7802 108.435C74.7612 108.435 74.7423 108.432 74.7247 108.425C74.7071 108.418 74.691 108.407 74.6775 108.394C74.6639 108.38 74.6532 108.364 74.6457 108.347C74.6383 108.329 74.6344 108.311 74.6343 108.292C74.6341 108.273 74.6377 108.254 74.6449 108.236C74.652 108.218 74.6625 108.202 74.6759 108.189C74.6892 108.175 74.7051 108.165 74.7226 108.157C74.7383 108.157 76.3098 107.502 77.4547 108.64C77.475 108.661 77.4888 108.687 77.4944 108.715C77.4999 108.744 77.497 108.773 77.486 108.8C77.4749 108.827 77.4563 108.85 77.4323 108.866C77.4083 108.882 77.3801 108.891 77.3512 108.891Z" fill="#EBEBEB"/>
<path d="M95.9835 83.007L91.247 85.4599L82.6681 89.9109C82.2852 90.1106 81.946 90.3846 81.6703 90.7169C81.3945 91.0492 81.1878 91.4331 81.0621 91.8462C80.9723 92.1391 80.9248 92.4433 80.9209 92.7496V92.9159C80.7295 93.0483 80.5293 93.1678 80.3218 93.2735C79.6556 93.6121 78.9232 93.8005 78.1763 93.8255C76.9996 93.8465 75.839 93.5496 74.8169 92.9661C74.8169 92.9661 74.7855 91.5483 74.7259 89.2428C74.6663 86.9373 76.6425 85.8551 78.4523 84.5063C80.2622 83.1575 89.9766 79.0359 89.9766 79.0359L95.9835 83.007Z" fill="#455A64"/>
<path d="M89.9766 84.6286L95.2306 83.0477L95.9834 83.788L90.4094 85.8959L89.9766 84.6286Z" fill="#37474F"/>
<path d="M91.6853 85.852L81.0613 91.8462L80.9452 91.9121L80.3179 93.2735C79.6516 93.6121 78.9193 93.8005 78.1724 93.8255L79.3361 91.3789C79.6179 90.786 80.0743 90.2934 80.6441 89.9673L89.9727 84.6349C89.9727 84.6349 89.9037 83.0666 90.2174 82.389C90.2174 82.389 90.2707 84.3589 91.2431 85.4662C91.3716 85.6149 91.5205 85.7448 91.6853 85.852Z" fill="#37474F"/>
<path d="M77.4291 96.9559L70.6381 111.262C70.6381 111.262 70.1049 114.158 71.9869 114.158C73.8689 114.158 74.1826 113.195 74.1826 113.195C74.1826 113.195 74.3614 111.981 75.9674 109.744C77.5734 107.508 82.5357 103.157 83.6022 100.052L77.4291 96.9559Z" fill="#FFA8A7"/>
<path d="M105.079 84.8482C105.079 84.8482 104.138 88.9635 102.372 90.3876C100.606 91.8117 99.1603 92.7746 93.2288 94.0293C89.3267 94.8512 86.7828 95.5412 85.4999 95.9114C85.2078 95.9961 84.9446 96.1594 84.7388 96.3834C84.5331 96.6074 84.3927 96.8835 84.3331 97.1817C84.144 98.1351 83.9032 99.0776 83.6116 100.005C83.6116 100.005 79.7252 100.133 77.4448 96.9151L79.7001 92.599C80.2839 91.4773 81.1567 90.5319 82.2283 89.8606C84.8645 88.1831 87.5959 86.6603 90.4089 85.2998C95.0167 83.1575 95.6441 82.7654 95.6441 82.7654L105.079 84.8482Z" fill="#455A64"/>
<path d="M90.0579 68.9984L85.6665 75.8615L88.9946 79.0359L93.9537 71.3886C93.9537 71.3886 92.4857 68.8321 90.0579 68.9984Z" fill="#FFA8A7"/>
<path d="M90.0576 68.9983C90.0576 68.9983 92.6925 69.6853 93.3104 71.3885L98.6146 64.9771L97.7614 61.8623C96.9943 61.7378 96.208 61.8172 95.4813 62.0924C94.7546 62.3677 94.113 62.8292 93.6209 63.4307C92.4666 64.7951 90.0576 68.9983 90.0576 68.9983Z" fill="#30319D"/>
<path opacity="0.2" d="M90.0576 68.9983C90.0576 68.9983 92.6925 69.6853 93.3104 71.3885L98.6146 64.9771L97.7614 61.8623C96.9943 61.7378 96.208 61.8172 95.4813 62.0924C94.7546 62.3677 94.113 62.8292 93.6209 63.4307C92.4666 64.7951 90.0576 68.9983 90.0576 68.9983Z" fill="black"/>
<path d="M99.0046 46.7214C99.0046 46.7214 97.7499 45.6863 96.2913 47.286C94.8327 48.8857 96.1752 53.5595 94.0454 53.3085C94.0454 53.3085 95.4444 54.8079 96.8402 53.7539C96.8904 53.716 96.9482 53.6892 97.0096 53.6755C97.5585 53.5689 98.0635 54.5569 98.2831 54.9082C98.8916 55.8743 99.4186 56.8844 100.027 57.8473C100.636 58.8103 101.401 60.1528 102.398 60.7551C103.581 61.4734 105.36 61.3636 106.57 60.8053C108.534 59.9019 109.902 57.8128 110.585 55.8273C110.899 54.949 111.169 53.9045 111.053 52.976C110.868 51.508 109.779 50.9905 109.773 51.0595C109.773 51.0595 110.24 47.3331 105.382 46.414C100.861 45.5545 99.0046 46.7214 99.0046 46.7214Z" fill="#263238"/>
<path d="M105.45 58.6692L104.938 63.1923L106.416 63.8197C106.416 63.8197 99.2012 67.4457 97.5356 66.8937C95.87 66.3416 99.3079 61.9753 99.3079 61.9753L100.142 62.0788L100.252 59.9835L105.45 58.6692Z" fill="#FFA8A7"/>
<path d="M104.113 59.5318L102.156 59.5035L100.252 59.9866L100.17 61.4891C103.273 60.7927 104.113 59.5318 104.113 59.5318Z" fill="#FF9090"/>
<path d="M98.9938 48.5501C98.9938 48.5501 96.9173 49.4911 96.3903 53.9453C95.8634 58.3994 96.613 60.4602 99.411 60.4602C101.66 60.4602 104.314 60.1465 105.449 58.6692C105.725 58.3053 106.29 49.5476 103.918 48.318C101.547 47.0884 98.9938 48.5501 98.9938 48.5501Z" fill="#FFA8A7"/>
<path d="M98.9943 48.158C98.9943 48.158 98.897 52.9133 104.302 54.3907C104.302 54.3907 103.909 56.9001 105.431 56.9001H106.914V52.5087C106.914 51.1843 106.388 49.9141 105.452 48.9776C104.515 48.0411 103.245 47.515 101.921 47.515H99.6624C99.4871 47.5158 99.3192 47.5858 99.1953 47.7098C99.0713 47.8337 99.0014 48.0016 99.0005 48.1769L98.9943 48.158Z" fill="#263238"/>
<path d="M99.3484 53.7539V56.464L97.7612 55.9778L99.3484 53.7539Z" fill="#FF9090"/>
<path d="M100.99 55.0901C101.216 55.0901 101.4 54.9062 101.4 54.6792C101.4 54.4523 101.216 54.2683 100.99 54.2683C100.763 54.2683 100.579 54.4523 100.579 54.6792C100.579 54.9062 100.763 55.0901 100.99 55.0901Z" fill="#263238"/>
<path d="M98.2919 53.9829C98.2926 54.0651 98.2687 54.1456 98.2235 54.2141C98.1782 54.2827 98.1136 54.3363 98.0378 54.368C97.962 54.3997 97.8785 54.4082 97.7979 54.3923C97.7173 54.3764 97.6432 54.3369 97.5851 54.2788C97.527 54.2207 97.4875 54.1467 97.4717 54.0661C97.4558 53.9855 97.4643 53.902 97.496 53.8262C97.5277 53.7504 97.5813 53.6858 97.6498 53.6405C97.7184 53.5952 97.7989 53.5714 97.881 53.572C97.99 53.572 98.0945 53.6153 98.1716 53.6924C98.2487 53.7694 98.2919 53.874 98.2919 53.9829Z" fill="#263238"/>
<path d="M97.3667 52.4522L98.3924 52.1573C98.3924 52.1573 98.1447 51.715 97.7494 51.8436C97.3542 51.9722 97.3667 52.4522 97.3667 52.4522Z" fill="#263238"/>
<path d="M105.39 56.4922C105.372 56.0437 105.454 55.5968 105.631 55.1842C105.718 54.9273 105.878 54.7013 106.091 54.534C106.305 54.3668 106.562 54.2657 106.832 54.2432C108.216 54.2056 108.401 55.5387 108.385 56.0123C108.335 57.267 107.325 58.6064 105.449 58.6566L105.39 56.4922Z" fill="#FFAAA8"/>
<path d="M99.3083 61.9784L97.7619 61.8623C97.7619 61.8623 91.9746 66.169 92.3448 69.1583C92.5644 70.9149 93.1007 71.8998 93.452 72.3703C93.5522 72.5096 93.6217 72.6686 93.6557 72.8368C93.6898 73.005 93.6877 73.1785 93.6497 73.3458C93.4395 74.2868 92.9784 76.0434 92.3291 76.8684C91.635 77.6829 90.8451 78.4107 89.9766 79.0358C89.9766 79.0358 91.7269 82.2384 95.0957 83.9009C98.4645 85.5633 103.894 85.7139 105.08 84.8419L106.648 75.8615L107.426 64.2839L106.128 63.6879C106.128 63.6879 99.9137 66.6082 97.9721 66.4388C96.9746 66.3572 99.3083 61.9784 99.3083 61.9784Z" fill="#30319D"/>
<path opacity="0.2" d="M96.7827 73.051C97.6528 73.6907 98.7113 74.0218 99.7908 73.992C100.896 74.0142 101.97 73.6277 102.808 72.9067C102.808 72.9067 101.983 74.4469 99.7469 74.4469C97.5104 74.4469 96.7827 73.051 96.7827 73.051Z" fill="black"/>
<path d="M103.97 74.7323L103.045 78.7912C101.141 78.3627 99.2154 78.0391 97.2762 77.822C93.7945 77.4173 93.0981 77.1946 93.0981 77.1946L93.3146 80.9775C93.3146 80.9775 97.5335 82.6713 101.398 83.2297C105.262 83.788 106.288 83.6437 107.282 80.5007C108.277 77.3577 108.637 76.1093 108.637 76.1093L103.97 74.7323Z" fill="#FFA8A7"/>
<path d="M107.413 64.2902C107.413 64.2902 104.537 66.3573 104.857 70.9526C104.857 70.9526 104.063 74.4029 103.969 74.7166C103.969 74.7166 105.657 76.0403 108.637 76.0842L110.544 69.2023C110.753 68.4621 110.723 67.6749 110.458 66.9527C110.194 66.2306 109.707 65.6106 109.07 65.181C108.543 64.8383 107.989 64.5404 107.413 64.2902Z" fill="#30319D"/>
<path opacity="0.2" d="M107.413 64.2902C107.413 64.2902 104.537 66.3573 104.857 70.9526C104.857 70.9526 104.063 74.4029 103.969 74.7166C103.969 74.7166 105.657 76.0403 108.637 76.0842L110.544 69.2023C110.753 68.4621 110.723 67.6749 110.458 66.9527C110.194 66.2306 109.707 65.6106 109.07 65.181C108.543 64.8383 107.989 64.5404 107.413 64.2902Z" fill="black"/>
<path d="M92.4638 82.3514L92.3759 81.9467L90.6382 73.8415C90.6382 73.8415 90.7668 73.5811 90.8578 73.3898C90.9075 73.4212 90.9529 73.4592 90.9926 73.5027C91.0836 73.6036 91.1482 73.7253 91.1808 73.8571L92.9531 81.5327L92.9813 81.6456C93.0911 82.1224 92.4638 82.3514 92.4638 82.3514Z" fill="#37474F"/>
<path d="M90.9922 73.5027L90.6378 73.8414L86.3938 72.4205L86.0425 72.3044L86.2338 72.1194C86.2639 72.0869 86.2988 72.0594 86.3373 72.0378C86.4037 71.9956 86.4779 71.9672 86.5555 71.9543C86.6331 71.9413 86.7125 71.9441 86.789 71.9625L90.6723 73.2925C90.7945 73.3353 90.9044 73.4075 90.9922 73.5027Z" fill="#455A64"/>
<path d="M85.9835 72.5146L87.9158 80.2372C87.9559 80.3962 88.0339 80.5432 88.1431 80.6656C88.2524 80.7879 88.3896 80.882 88.5431 80.9398L92.2193 82.3607C92.2732 82.3837 92.3325 82.3911 92.3903 82.3821C92.4482 82.3731 92.5024 82.3481 92.5468 82.3099C92.5912 82.2717 92.624 82.2219 92.6415 82.166C92.659 82.1101 92.6606 82.0504 92.6459 81.9937L90.8423 74.2053C90.8131 74.0751 90.7511 73.9546 90.6622 73.8552C90.5732 73.7559 90.4603 73.6809 90.3342 73.6375L86.2784 72.2511C86.2402 72.2366 86.1989 72.2329 86.1587 72.2403C86.1186 72.2477 86.0813 72.266 86.0509 72.2932C86.0204 72.3204 85.9981 72.3554 85.9862 72.3945C85.9743 72.4335 85.9734 72.4751 85.9835 72.5146Z" fill="#263238"/>
<path d="M74.1768 113.188C73.8647 113.378 73.515 113.498 73.152 113.538C72.789 113.579 72.4215 113.54 72.0752 113.424C72.0752 113.424 72.5865 112.109 71.6204 111.542C70.6543 110.974 69.707 110.974 69.4592 111.786L69.2083 112.599C69.2083 112.599 66.7804 114.503 65.8677 115.086C64.9549 115.67 64.0829 116.109 63.4022 116.548C62.7215 116.987 60.9712 118.26 62.4863 119.863C64.0013 121.466 68.5056 120.641 69.6474 118.813C70.7892 116.984 74.0827 117.872 74.0827 115.657C74.0827 113.442 74.1768 113.188 74.1768 113.188Z" fill="#30319D"/>
<path d="M65.4478 115.343C64.6918 115.801 63.9766 116.171 63.4026 116.542C62.7251 116.978 60.9717 118.254 62.4867 119.857C63.6504 121.093 66.5864 120.886 68.3994 119.892C68.459 116.206 66.2131 115.56 65.4478 115.343Z" fill="#EBEBEB"/>
<path d="M69.7344 118.245C68.5299 120.171 63.7746 121.043 62.1906 119.352C62.1184 119.277 62.0557 119.202 61.9961 119.126C62.1113 119.399 62.2773 119.647 62.4854 119.857C64.0005 121.463 68.5048 120.635 69.6465 118.806C70.735 117.069 73.7619 117.793 74.0568 115.955C73.1471 117.006 70.7068 116.692 69.7344 118.245Z" fill="#263238"/>
<path d="M71.0588 114.581C71.0246 114.581 70.9916 114.569 70.9653 114.547C70.939 114.526 70.921 114.495 70.9145 114.462C70.6635 113.063 69.1924 112.737 69.1767 112.734C69.1391 112.725 69.1062 112.703 69.0851 112.67C69.064 112.638 69.0564 112.599 69.0638 112.561C69.0721 112.524 69.0948 112.491 69.1271 112.47C69.1593 112.448 69.1985 112.441 69.2363 112.448C69.2552 112.448 70.9145 112.821 71.2031 114.409C71.2095 114.447 71.2005 114.486 71.1782 114.518C71.1559 114.55 71.122 114.571 71.0839 114.578L71.0588 114.581Z" fill="#EBEBEB"/>
<path d="M70.2492 115.218C70.2151 115.218 70.182 115.206 70.1557 115.184C70.1294 115.162 70.1115 115.132 70.1049 115.099C69.854 113.703 68.3829 113.377 68.3672 113.374C68.3295 113.365 68.2966 113.343 68.2755 113.31C68.2544 113.278 68.2468 113.239 68.2543 113.201C68.258 113.182 68.2654 113.164 68.2762 113.148C68.2869 113.132 68.3007 113.119 68.3168 113.108C68.3328 113.098 68.3509 113.091 68.3697 113.087C68.3886 113.084 68.408 113.084 68.4268 113.088C68.4456 113.088 70.1049 113.458 70.3935 115.045C70.3971 115.064 70.3968 115.084 70.3928 115.103C70.3887 115.122 70.3808 115.14 70.3697 115.155C70.3586 115.171 70.3444 115.185 70.328 115.195C70.3117 115.205 70.2934 115.212 70.2743 115.215L70.2492 115.218Z" fill="#EBEBEB"/>
<path d="M69.3245 115.936C69.2903 115.936 69.2573 115.924 69.231 115.902C69.2047 115.881 69.1867 115.85 69.1802 115.817C68.9292 114.424 67.5052 114.104 67.4424 114.092C67.4046 114.083 67.3716 114.059 67.3506 114.027C67.3295 113.994 67.322 113.954 67.3295 113.916C67.3336 113.898 67.3413 113.88 67.3522 113.864C67.3631 113.849 67.3769 113.836 67.393 113.825C67.409 113.815 67.4269 113.808 67.4456 113.805C67.4643 113.802 67.4835 113.802 67.502 113.806C67.5209 113.806 69.1802 114.176 69.4688 115.764C69.4723 115.783 69.4721 115.802 69.468 115.821C69.4639 115.84 69.4561 115.858 69.445 115.874C69.4339 115.889 69.4197 115.903 69.4033 115.913C69.3869 115.923 69.3686 115.93 69.3496 115.933L69.3245 115.936Z" fill="#EBEBEB"/>
<path d="M68.5337 116.532C68.4995 116.532 68.4665 116.519 68.4406 116.497C68.4148 116.475 68.3977 116.444 68.3925 116.41C68.1416 115.02 66.7144 114.697 66.6548 114.685C66.6171 114.676 66.5842 114.654 66.5631 114.621C66.542 114.589 66.5344 114.55 66.5419 114.512C66.5456 114.493 66.553 114.475 66.5638 114.459C66.5745 114.444 66.5883 114.43 66.6044 114.419C66.6204 114.409 66.6385 114.402 66.6573 114.398C66.6762 114.395 66.6956 114.395 66.7144 114.399C66.7144 114.399 68.3925 114.773 68.678 116.36C68.6816 116.378 68.6815 116.398 68.6776 116.416C68.6737 116.435 68.6661 116.453 68.6553 116.469C68.6445 116.484 68.6307 116.498 68.6147 116.508C68.5986 116.519 68.5807 116.526 68.5619 116.529L68.5337 116.532Z" fill="#EBEBEB"/>
<path d="M98.9941 57.1196C99.5494 57.1563 100.101 57.0073 100.562 56.6962C100.562 56.6962 100.669 57.5274 99.9759 57.6842C99.2827 57.8411 98.9941 57.1196 98.9941 57.1196Z" fill="#FF9090"/>
<path d="M86.5482 76.2003C86.4729 76.0874 86.5074 75.9337 86.4729 75.7518C86.4003 75.4288 86.2764 75.1196 86.1059 74.8358C86.0398 74.6769 85.9313 74.5391 85.7923 74.4375C85.7199 74.3889 85.6323 74.3681 85.5459 74.3791C85.4594 74.39 85.3797 74.432 85.3218 74.4971C85.2748 74.5801 85.252 74.6746 85.2559 74.77C85.2213 75.2038 85.2583 75.6405 85.3657 76.0623C85.4661 76.376 85.2684 76.7869 85.2245 77.0943C85.1524 77.5742 85.3406 77.7749 85.4535 78.2517C85.7139 79.3308 86.589 79.8201 87.6492 79.6225C89.8449 79.221 89.7634 76.2787 89.4685 75.8741C89.1737 75.4695 88.6718 75.2279 87.8217 75.9337C87.5457 76.1627 87.0877 76.4575 86.7019 76.3132C86.6396 76.2937 86.5855 76.2539 86.5482 76.2003Z" fill="#FFA8A7"/>
<path d="M93.9412 77.4895C93.4205 76.5513 92.5715 75.8386 91.5573 75.4883L91.8709 76.7932C91.8709 76.7932 90.3434 77.088 89.3773 76.9155C88.4111 76.743 86.6389 75.6232 86.9212 76.8967C87.2035 78.1702 87.489 79.0108 88.2167 79.588C88.9853 80.2396 89.9291 80.6499 90.9299 80.7674C91.9745 80.8489 93.3264 80.9807 93.3264 80.9807L93.9412 77.4895Z" fill="#FFA8A7"/>
<path d="M88.2045 79.66C88.1886 79.6596 88.1732 79.6541 88.1606 79.6444C87.4266 79.0609 87.1286 78.236 86.8369 76.9123C86.7742 76.6268 86.8055 76.4324 86.9342 76.3226C87.1976 76.0905 87.7936 76.3226 88.4272 76.5453C88.7321 76.6745 89.0468 76.7794 89.3682 76.859C89.5085 76.8814 89.6499 76.8961 89.7917 76.9029C89.8108 76.9029 89.8292 76.9105 89.8427 76.924C89.8563 76.9375 89.8639 76.9559 89.8639 76.975C89.8639 76.9941 89.8563 77.0125 89.8427 77.026C89.8292 77.0396 89.8108 77.0472 89.7917 77.0472C89.6433 77.0425 89.4955 77.0268 89.3494 77.0001C89.0162 76.9226 88.6899 76.8177 88.3739 76.6864C87.8344 76.4857 87.2259 76.2598 87.0251 76.4355C86.9436 76.5076 86.9279 76.6582 86.9749 76.8841C87.2604 78.1732 87.5458 78.9794 88.2453 79.5314C88.2585 79.5454 88.2659 79.5639 88.2659 79.5832C88.2659 79.6024 88.2585 79.621 88.2453 79.635C88.2353 79.6481 88.2208 79.6571 88.2045 79.66Z" fill="#FF9090"/>
<path d="M109.619 51.1599C110.26 50.7954 110.989 50.6169 111.726 50.6446C112.462 50.6724 113.176 50.9051 113.788 51.3168C114.39 51.7428 114.889 52.2979 115.249 52.9415C115.608 53.5852 115.82 54.3011 115.867 55.0369C116.096 58.0764 114.948 58.9609 113.791 62.6027C113.411 63.7946 113.791 65.203 116.824 66.6051C116.824 66.6051 108.951 68.1296 110.3 60.2188C111.278 54.4786 109.183 54.6919 109.183 54.6919L109.619 51.1599Z" fill="#263238"/>
<path d="M124.528 98.5493C124.528 98.5493 120.585 94.6975 122.831 88.2452C124.086 84.6286 128.258 81.9718 130.632 81.724C129.845 82.6601 129.217 83.7199 128.775 84.8607L125.786 86.8494L128.534 85.9899L127.95 88.3425C127.95 88.3425 125.394 89.8857 125.014 90.2245L127.768 89.5031C127.768 89.5031 127.558 96.156 124.528 98.5493Z" fill="#30319D"/>
<path opacity="0.4" d="M124.528 98.5493C124.528 98.5493 120.585 94.6975 122.831 88.2452C124.086 84.6286 128.258 81.9718 130.632 81.724C129.845 82.6601 129.217 83.7199 128.775 84.8607L125.786 86.8494L128.534 85.9899L127.95 88.3425C127.95 88.3425 125.394 89.8857 125.014 90.2245L127.768 89.5031C127.768 89.5031 127.558 96.156 124.528 98.5493Z" fill="black"/>
<path d="M124.528 98.5493C124.528 98.5493 122.486 90.488 125.51 85.7892C125.51 85.7892 121.972 89.9359 124.528 98.5493Z" fill="white"/>
<path d="M129.045 99.6409L124.218 99.5813H124.168L119.343 99.6409C119.343 99.6409 119.29 105.585 121.119 108.007C121.627 108.634 122.813 109.101 124.193 109.101C125.573 109.101 126.765 108.646 127.27 108.003C129.099 105.582 129.045 99.6409 129.045 99.6409Z" fill="#37474F"/>
<path d="M124.193 102.244C126.871 102.244 129.042 101.079 129.042 99.6409C129.042 98.2031 126.871 97.0375 124.193 97.0375C121.514 97.0375 119.343 98.2031 119.343 99.6409C119.343 101.079 121.514 102.244 124.193 102.244Z" fill="#455A64"/>
<path d="M124.193 98.9508C125.862 98.9508 127.277 99.4841 127.772 100.227C127.895 100.056 127.963 99.8516 127.967 99.6409C127.967 98.6121 126.279 97.7777 124.203 97.7777C122.126 97.7777 120.438 98.6121 120.438 99.6409C120.442 99.8516 120.51 100.056 120.633 100.227C121.11 99.4841 122.524 98.9508 124.193 98.9508Z" fill="#263238"/>
<path d="M124.192 98.9508C122.524 98.9508 121.109 99.484 120.613 100.227C121.109 100.968 122.524 101.504 124.192 101.504C125.861 101.504 127.276 100.968 127.771 100.227C127.276 99.484 125.861 98.9508 124.192 98.9508Z" fill="#E0E0E0"/>
<path d="M124.252 100.547C124.252 100.547 122.37 100.475 120.78 97.9942C120.118 96.9685 119.798 96.4258 119.798 96.4258L122.405 96.2314L119.485 95.5005L118.108 93.3926L120.529 93.2107C120.529 93.2107 118.725 92.5834 117.436 92.5834C117.436 92.5834 115.203 88.6374 114.547 88.0728C116.238 88.1778 117.89 88.6205 119.407 89.3748C120.923 90.129 122.273 91.1795 123.377 92.4642C127.05 96.796 124.795 100.66 124.252 100.547Z" fill="#30319D"/>
<path d="M124.253 100.547C124.253 100.547 125.423 93.5056 117.96 89.271C117.96 89.271 125.705 92.9911 124.253 100.547Z" fill="white"/>
<path d="M124.253 100.547C124.253 100.547 125.947 100.657 127.628 98.5681C128.321 97.7087 128.657 97.2539 128.657 97.2539L126.326 96.8335L129.027 96.4477L130.47 94.6755L128.302 94.2865C128.302 94.2865 129.99 93.885 131.154 93.9979C131.154 93.9979 133.541 90.6479 134.184 90.2025C132.648 90.1384 131.116 90.3829 129.677 90.9217C128.237 91.4605 126.921 92.2826 125.805 93.3392C122.082 96.8994 123.751 100.598 124.253 100.547Z" fill="#30319D"/>
<path opacity="0.2" d="M124.253 100.547C124.253 100.547 125.947 100.657 127.628 98.5681C128.321 97.7087 128.657 97.2539 128.657 97.2539L126.326 96.8335L129.027 96.4477L130.47 94.6755L128.302 94.2865C128.302 94.2865 129.99 93.885 131.154 93.9979C131.154 93.9979 133.541 90.6479 134.184 90.2025C132.648 90.1384 131.116 90.3829 129.677 90.9217C128.237 91.4605 126.921 92.2826 125.805 93.3392C122.082 96.8994 123.751 100.598 124.253 100.547Z" fill="black"/>
<path d="M124.253 100.547C124.253 100.547 123.855 94.0826 130.991 90.9647C130.991 90.9647 123.654 93.5933 124.253 100.547Z" fill="white"/>
<path d="M26.4244 100.347L58.3468 81.9184C60.5989 80.6167 62.4245 77.1287 62.4245 74.1268V5.76834C62.4245 2.76651 60.5989 1.37694 58.3468 2.68809L26.4244 21.1163C24.1722 22.418 22.3467 25.9061 22.3467 28.9079V97.2695C22.3467 100.268 24.1722 101.661 26.4244 100.347Z" fill="#455A64"/>
<path d="M22.7477 18.974L54.67 0.542607C55.633 -0.0125916 56.5176 -0.0847359 57.2139 0.26344C57.3002 0.304918 57.383 0.353166 57.4617 0.407729L61.0376 2.48424C60.3193 2.05764 59.3751 2.08587 58.3431 2.68499L26.4239 21.1163C24.1717 22.4181 22.3462 25.9061 22.3462 28.9079V97.2696C22.3462 98.8567 22.8574 99.9891 23.6699 100.513L20.141 98.4584C19.2408 97.9785 18.6699 96.8053 18.6699 95.1241V26.7656C18.6699 23.7637 20.4955 20.2757 22.7477 18.974Z" fill="#37474F"/>
<path d="M22.3462 28.908V97.2696C22.3462 98.8568 22.8574 99.9892 23.6699 100.513L20.141 98.4584C19.2408 97.9785 18.6699 96.8054 18.6699 95.1241V26.7656L22.3462 28.8892V28.908Z" fill="#263238"/>
<path d="M18.6699 32.0729L22.3462 34.1964V35.8526L18.6699 33.7291V32.0729Z" fill="#37474F"/>
<path d="M20.2794 43.1016C20.593 43.2898 20.8753 43.1016 20.8753 42.6499V39.0866C20.872 38.8634 20.8163 38.6441 20.7128 38.4464C20.6093 38.2486 20.4608 38.0779 20.2794 37.9479C19.9657 37.7597 19.6865 37.9479 19.6865 38.3996V41.9629C19.69 42.1857 19.7455 42.4047 19.8484 42.6023C19.9513 42.8 20.0988 42.9709 20.2794 43.1016Z" fill="#37474F"/>
<path d="M20.8755 42.6499V39.0866C20.8721 38.8634 20.8164 38.6442 20.7129 38.4464C20.6094 38.2487 20.461 38.078 20.2795 37.948C20.2256 37.9104 20.1629 37.8875 20.0974 37.8814C20.032 37.8754 19.9661 37.8864 19.9062 37.9135L20.3423 37.672C20.4031 37.6413 20.4711 37.6277 20.5391 37.6327C20.607 37.6377 20.6723 37.661 20.7281 37.7002C20.9097 37.83 21.0583 38.0007 21.1618 38.1985C21.2653 38.3962 21.3209 38.6156 21.324 38.8388V42.4021C21.3338 42.4921 21.3205 42.5831 21.2854 42.6665C21.2502 42.7499 21.1945 42.823 21.1233 42.8789L20.6559 43.1204C20.7307 43.0683 20.7904 42.9973 20.829 42.9147C20.8675 42.8321 20.8836 42.7407 20.8755 42.6499Z" fill="#455A64"/>
<path d="M20.2794 51.7307C20.593 51.9221 20.8753 51.7307 20.8753 51.2822V47.7095C20.8722 47.4867 20.8166 47.2678 20.7131 47.0705C20.6095 46.8732 20.4609 46.7031 20.2794 46.574C19.9657 46.3826 19.6865 46.574 19.6865 47.0225V50.5952C19.69 50.8176 19.7455 51.0361 19.8484 51.2332C19.9513 51.4304 20.0989 51.6007 20.2794 51.7307Z" fill="#37474F"/>
<path d="M20.8755 51.2822V47.7095C20.8724 47.4867 20.8168 47.2678 20.7132 47.0705C20.6097 46.8732 20.4611 46.7031 20.2795 46.574C20.2259 46.5358 20.1631 46.5125 20.0975 46.5065C20.032 46.5004 19.966 46.5118 19.9062 46.5395L20.3517 46.3105C20.4125 46.2799 20.4805 46.2663 20.5485 46.2713C20.6164 46.2762 20.6817 46.2996 20.7375 46.3387C20.9189 46.4687 21.0674 46.6394 21.1709 46.8372C21.2744 47.0349 21.3301 47.2542 21.3335 47.4774V51.0407C21.3435 51.1307 21.3303 51.2218 21.2952 51.3052C21.26 51.3887 21.2041 51.4618 21.1327 51.5175L20.6653 51.7621C20.7404 51.7085 20.7996 51.6356 20.8366 51.5511C20.8736 51.4666 20.887 51.3737 20.8755 51.2822Z" fill="#455A64"/>
<path d="M27.5346 23.0392L58.9237 4.92148C59.0553 4.84985 59.2031 4.81356 59.3529 4.81617C59.5026 4.81878 59.6491 4.8602 59.7781 4.93637C59.907 5.01254 60.014 5.12086 60.0886 5.25075C60.1632 5.38064 60.2028 5.52766 60.2035 5.67743V74.1269C60.2035 76.4104 58.585 79.2178 56.6057 80.3595L25.9882 98.0318C25.844 98.1197 25.6788 98.1671 25.5099 98.1691C25.3411 98.1712 25.1748 98.1277 25.0285 98.0433C24.8822 97.959 24.7613 97.8368 24.6785 97.6896C24.5957 97.5424 24.554 97.3757 24.5579 97.2068V28.1802C24.5641 26.2951 25.9004 23.9833 27.5346 23.0392Z" fill="#30319D"/>
<path opacity="0.5" d="M27.5346 23.0392L58.9237 4.92148C59.0553 4.84985 59.2031 4.81356 59.3529 4.81617C59.5026 4.81878 59.6491 4.8602 59.7781 4.93637C59.907 5.01254 60.014 5.12086 60.0886 5.25075C60.1632 5.38064 60.2028 5.52766 60.2035 5.67743V74.1269C60.2035 76.4104 58.585 79.2178 56.6057 80.3595L25.9882 98.0318C25.844 98.1197 25.6788 98.1671 25.5099 98.1691C25.3411 98.1712 25.1748 98.1277 25.0285 98.0433C24.8822 97.959 24.7613 97.8368 24.6785 97.6896C24.5957 97.5424 24.554 97.3757 24.5579 97.2068V28.1802C24.5641 26.2951 25.9004 23.9833 27.5346 23.0392Z" fill="white"/>
<path d="M49.5253 9.65161L49.0391 11.6999L38.6409 17.6942L36.8467 16.7375L49.5253 9.65161Z" fill="#455A64"/>
<path d="M46.4702 11.6372C46.4702 11.976 46.7086 12.114 47.0003 11.9509C47.1555 11.85 47.2847 11.7138 47.3773 11.5536C47.47 11.3934 47.5235 11.2135 47.5336 11.0287C47.5336 10.6899 47.2952 10.5519 47.0003 10.715C46.8461 10.8166 46.7178 10.953 46.6257 11.1131C46.5337 11.2733 46.4804 11.4528 46.4702 11.6372Z" fill="#263238"/>
<path d="M39.4762 15.9596C39.5331 15.96 39.5892 15.9459 39.6393 15.9189L44.9497 12.9484C44.9881 12.9274 45.0219 12.8991 45.0492 12.8649C45.0765 12.8308 45.0967 12.7915 45.1087 12.7495C45.1207 12.7074 45.1241 12.6634 45.1189 12.62C45.1137 12.5766 45.0999 12.5347 45.0784 12.4967C45.0354 12.4198 44.9638 12.3631 44.8791 12.339C44.7944 12.3149 44.7036 12.3254 44.6267 12.3681L39.3131 15.3354C39.2366 15.3795 39.1804 15.4517 39.1563 15.5367C39.1323 15.6217 39.1424 15.7126 39.1845 15.7902C39.2138 15.8417 39.2563 15.8845 39.3075 15.9142C39.3587 15.944 39.4169 15.9597 39.4762 15.9596Z" fill="#263238"/>
<path d="M66.5051 85.2215C59.6482 89.2993 41.8066 99.9641 32.9767 105.278C32.7135 105.436 32.413 105.522 32.1059 105.526C31.7988 105.53 31.4961 105.452 31.2288 105.301C30.9614 105.15 30.739 104.93 30.5843 104.665C30.4296 104.4 30.3481 104.098 30.3481 103.791V30.009C30.3481 29.1692 30.5678 28.344 30.9854 27.6154C31.4031 26.8869 32.0042 26.2803 32.7289 25.856L66.6651 5.96607C66.9285 5.81213 67.2279 5.7304 67.533 5.72914C67.8382 5.72788 68.1382 5.80713 68.403 5.9589C68.6677 6.11066 68.8877 6.32957 69.0407 6.59353C69.1938 6.85749 69.2746 7.15715 69.2748 7.46229V80.3314C69.2763 81.3166 69.0218 82.2852 68.5362 83.1425C68.0507 83.9997 67.3508 84.7161 66.5051 85.2215Z" fill="#F5F5F5"/>
<path d="M66.3665 84.9862C60.986 88.1982 55.6044 91.4123 50.2218 94.6285L40.6674 100.344L36.3042 102.96L34.3971 104.108C33.8168 104.456 33.1989 104.948 32.5621 105.177C31.5521 105.535 30.6487 104.719 30.6205 103.728C30.6205 103.556 30.6205 103.386 30.6205 103.214V35.5641C30.6205 33.7636 30.6205 31.9631 30.6205 30.1595C30.6081 29.326 30.8184 28.5042 31.2298 27.7791C31.6411 27.0539 32.2386 26.4518 32.9605 26.0347C33.7384 25.5737 34.5288 25.1188 35.3005 24.664L46.2633 18.2243L59.2556 10.6115C61.7179 9.16862 64.1771 7.71318 66.6488 6.2797C67.364 5.86251 68.2611 5.89075 68.7661 6.64356C68.947 6.94561 69.0303 7.29616 69.0045 7.64731C69.0045 8.27465 69.0045 8.93336 69.0045 9.57639V80.0584C69.0045 82.0816 68.1262 83.9072 66.3665 84.9862C66.0685 85.1713 66.3414 85.6418 66.6426 85.4567C67.552 84.8952 68.2988 84.1057 68.8089 83.1665C69.319 82.2272 69.5745 81.1709 69.5503 80.1023V12.8072C69.5503 11.0538 69.5691 9.30036 69.5503 7.55007C69.5557 7.1818 69.4613 6.81894 69.2773 6.49991C69.0933 6.18088 68.8264 5.91757 68.5049 5.73786C68.1834 5.55814 67.8193 5.46873 67.4511 5.47908C67.083 5.48943 66.7245 5.59916 66.4136 5.79664C65.598 6.26715 64.7887 6.73766 63.9732 7.22699L52.7092 13.8329L39.6009 21.5116C37.2829 22.8698 34.9554 24.2186 32.6468 25.5893C31.8524 26.0527 31.1951 26.7183 30.7416 27.5183C30.2881 28.3184 30.0548 29.2243 30.0653 30.1438C30.0653 30.7461 30.0653 31.3515 30.0653 31.9537V103.44C30.0653 103.556 30.0653 103.672 30.0653 103.788C30.0686 104.104 30.1457 104.414 30.2905 104.695C30.4352 104.976 30.6436 105.219 30.899 105.405C31.1543 105.591 31.4496 105.714 31.7613 105.766C32.0729 105.817 32.3923 105.795 32.6939 105.701C33.3212 105.488 33.9485 105.008 34.5194 104.66L36.4642 103.493L40.8148 100.883C47.1552 97.0856 53.4987 93.2933 59.8453 89.5062L66.63 85.4567C66.6812 85.4165 66.7164 85.3594 66.7291 85.2956C66.7419 85.2318 66.7314 85.1655 66.6996 85.1087C66.6678 85.0519 66.6168 85.0084 66.5557 84.9859C66.4946 84.9634 66.4275 84.9636 66.3665 84.9862Z" fill="#E0E0E0"/>
<path d="M48.8413 93.5651L51.037 92.3104C51.2577 92.1527 51.4382 91.9454 51.5641 91.7051C51.6899 91.4648 51.7576 91.1983 51.7616 90.9271V88.6624C51.7616 88.1292 51.4479 87.8845 51.037 88.1166L48.8413 89.3713C48.6208 89.5292 48.4404 89.7366 48.3145 89.9768C48.1887 90.217 48.1209 90.4834 48.1167 90.7546V93.0162C48.1167 93.5525 48.4429 93.7972 48.8413 93.5651Z" fill="#E0E0E0"/>
<path d="M49.9329 91.909C49.9988 91.866 50.0536 91.8081 50.0928 91.74C50.1321 91.6719 50.1547 91.5954 50.1587 91.5169V89.8983C50.1587 89.754 50.0583 89.6976 49.9329 89.7697C49.867 89.8126 49.8122 89.8705 49.7729 89.9387C49.7337 90.0068 49.7111 90.0833 49.707 90.1618V91.7804C49.707 91.9372 49.8074 91.9811 49.9329 91.909Z" fill="white"/>
<path d="M49.2329 91.5044L50.6319 90.6951C50.6982 90.6523 50.7534 90.5945 50.7932 90.5264C50.833 90.4583 50.8562 90.3817 50.8608 90.303C50.8608 90.1587 50.7573 90.1022 50.6319 90.1744L49.2329 90.9962C49.1666 91.039 49.1113 91.0967 49.0715 91.1649C49.0317 91.233 49.0086 91.3095 49.0039 91.3883C49.0039 91.52 49.1074 91.5765 49.2329 91.5044Z" fill="white"/>
<path d="M43.1176 93.3079C43.2001 93.2335 43.3041 93.1871 43.4146 93.1752C43.5251 93.1634 43.6365 93.1869 43.7329 93.2422C43.8293 93.2975 43.9057 93.3819 43.9513 93.4833C43.9968 93.5847 44.0091 93.6979 43.9865 93.8067C43.9762 94.1091 43.8887 94.4039 43.7324 94.663C43.5832 94.9294 43.367 95.1522 43.1051 95.3092C43.0163 95.3762 42.9109 95.4176 42.8002 95.4286C42.6895 95.4397 42.578 95.4201 42.4777 95.3719C42.139 95.1774 42.139 94.5407 42.4777 93.9541C42.6265 93.6874 42.8429 93.4646 43.1051 93.3079M43.1051 92.7841C42.7124 93.0266 42.3884 93.3657 42.164 93.769C41.6465 94.663 41.6465 95.6291 42.164 95.924C42.315 95.9932 42.4815 96.0212 42.6468 96.0052C42.8121 95.9893 42.9702 95.9298 43.1051 95.833C43.4983 95.5912 43.8224 95.2519 44.0461 94.8481C44.5605 93.9541 44.5605 92.988 44.0461 92.69C43.8949 92.6212 43.7282 92.5937 43.5629 92.6103C43.3976 92.6268 43.2397 92.6868 43.1051 92.7841Z" fill="#E0E0E0"/>
<path d="M41.1971 97.897C41.264 97.855 41.319 97.7967 41.3571 97.7276L42.3451 96.0181C42.433 95.8644 42.433 95.7044 42.3451 95.6479C42.2573 95.5915 42.113 95.6793 42.0315 95.833L41.0434 97.5425C40.9556 97.6962 40.9556 97.8562 41.0434 97.9127C41.0684 97.9227 41.0954 97.9265 41.1222 97.9238C41.149 97.921 41.1747 97.9118 41.1971 97.897Z" fill="#E0E0E0"/>
<path d="M55.42 85.5727C55.9658 85.2591 56.4081 85.6041 56.4081 86.3475C56.4116 85.9735 56.5028 85.6055 56.6744 85.2732C56.846 84.9409 57.0932 84.6535 57.3961 84.4341C57.9419 84.1204 58.3842 84.4655 58.3842 85.2057C58.3842 87.0878 56.4081 89.0451 56.4081 89.0451C56.4081 89.0451 54.4351 89.3776 54.4351 87.4767C54.4402 87.1047 54.5318 86.7389 54.7028 86.4085C54.8737 86.078 55.1193 85.7918 55.42 85.5727Z" fill="#E0E0E0"/>
<path d="M62.27 82.2291C62.27 82.7874 62.6621 83.0132 63.1452 82.7341C63.3999 82.5682 63.612 82.3445 63.764 82.0813C63.9161 81.818 64.0039 81.5226 64.0203 81.219C64.0203 80.6607 63.6282 80.4349 63.1452 80.714C62.8904 80.8799 62.6784 81.1036 62.5263 81.3668C62.3742 81.6301 62.2864 81.9255 62.27 82.2291Z" fill="#E0E0E0"/>
<path d="M63.1446 82.7341C63.8598 82.3232 64.44 82.7592 64.44 83.7127V84.0076L61.8491 85.5038V85.2058C61.8491 84.2554 62.4294 83.1544 63.1446 82.7341Z" fill="#E0E0E0"/>
<path d="M36.2601 96.7395L38.0073 97.3167V99.779L36.6522 100.544V99.2112C36.6522 98.9603 36.4766 98.8599 36.2601 98.9854C36.1459 99.0601 36.0509 99.1606 35.9828 99.2789C35.9146 99.3971 35.8753 99.5298 35.868 99.6661V100.996L34.5161 101.777V99.3304L36.2601 96.7395Z" fill="#E0E0E0"/>
<path d="M30.347 98.1103C30.3151 98.1108 30.2836 98.1026 30.2559 98.0866C30.2283 98.0706 30.2056 98.0473 30.1902 98.0193C30.1778 97.9986 30.1697 97.9756 30.1663 97.9517C30.163 97.9277 30.1644 97.9034 30.1705 97.88C30.1766 97.8567 30.1874 97.8348 30.202 97.8156C30.2167 97.7964 30.2351 97.7804 30.256 97.7684L69.1733 75.3126C69.2158 75.2888 69.266 75.2826 69.3129 75.2956C69.3599 75.3085 69.3999 75.3394 69.4242 75.3816C69.4366 75.4024 69.4447 75.4254 69.4481 75.4493C69.4514 75.4732 69.45 75.4975 69.4439 75.5209C69.4378 75.5443 69.427 75.5662 69.4123 75.5853C69.3977 75.6045 69.3793 75.6206 69.3584 75.6326L30.4411 98.0852C30.4127 98.1023 30.3801 98.111 30.347 98.1103Z" fill="#E0E0E0"/>
<path d="M32.7289 25.856L66.6651 5.96607C66.9285 5.81213 67.2279 5.7304 67.533 5.72914C67.8382 5.72788 68.1382 5.80713 68.403 5.9589C68.6677 6.11066 68.8877 6.32957 69.0407 6.59353C69.1938 6.85749 69.2746 7.15715 69.2748 7.46229V10.6649L30.3481 33.1332V29.9965C30.3502 29.1588 30.571 28.3362 30.9885 27.61C31.4061 26.8838 32.006 26.2792 32.7289 25.856Z" fill="#E0E0E0"/>
<path d="M39.7186 37.0047C40.8204 35.0964 40.8208 33.0339 39.7196 32.3982C38.6184 31.7624 36.8326 32.794 35.7308 34.7024C34.629 36.6107 34.6285 38.6731 35.7297 39.3089C36.8309 39.9447 38.6168 38.913 39.7186 37.0047Z" fill="#30319D"/>
<path d="M42.1098 35.2849C42.0404 35.2854 41.9727 35.2628 41.9175 35.2207C41.8622 35.1786 41.8225 35.1194 41.8046 35.0523C41.7866 34.9852 41.7915 34.914 41.8183 34.85C41.8452 34.7859 41.8925 34.7326 41.953 34.6984L46.6141 32.0071C46.6865 31.9655 46.7725 31.9543 46.853 31.9761C46.9336 31.9979 47.0023 32.0508 47.0439 32.1231C47.0855 32.1955 47.0966 32.2814 47.0748 32.362C47.0531 32.4426 47.0002 32.5113 46.9278 32.5529L42.2666 35.241C42.2196 35.2703 42.1652 35.2855 42.1098 35.2849Z" fill="#455A64"/>
<path d="M42.1264 32.5936C42.057 32.5941 41.9893 32.5715 41.9341 32.5294C41.8788 32.4873 41.8391 32.4281 41.8212 32.361C41.8033 32.2939 41.8081 32.2227 41.8349 32.1587C41.8618 32.0946 41.9091 32.0413 41.9696 32.0071L54.7831 24.6107C54.8548 24.5732 54.9382 24.5648 55.0159 24.5874C55.0936 24.6099 55.1595 24.6616 55.2 24.7316C55.2405 24.8017 55.2524 24.8847 55.2331 24.9632C55.2139 25.0418 55.165 25.1099 55.0967 25.1533L42.2989 32.5529C42.2465 32.5827 42.1866 32.5969 42.1264 32.5936Z" fill="#455A64"/>
<path d="M40.545 86.404C40.545 88.2045 39.2903 90.3908 37.722 91.291C36.1536 92.1913 34.8989 91.4604 34.8989 89.6631C34.8989 87.8657 36.1536 85.6763 37.722 84.7761C39.2903 83.8758 40.545 84.6067 40.545 86.404Z" fill="#30319D"/>
<path d="M42.1098 87.4673C42.0404 87.4678 41.9727 87.4452 41.9175 87.4031C41.8622 87.361 41.8225 87.3018 41.8046 87.2347C41.7866 87.1676 41.7915 87.0964 41.8183 87.0324C41.8452 86.9683 41.8925 86.915 41.953 86.8808L46.6141 84.1895C46.6498 84.1668 46.6898 84.1515 46.7315 84.1447C46.7732 84.1378 46.816 84.1394 46.857 84.1495C46.8981 84.1596 46.9368 84.1778 46.9706 84.2032C47.0045 84.2286 47.0328 84.2606 47.054 84.2972C47.0752 84.3338 47.0887 84.3744 47.0938 84.4164C47.0989 84.4584 47.0955 84.5009 47.0837 84.5416C47.0719 84.5822 47.052 84.62 47.0252 84.6528C46.9984 84.6855 46.9653 84.7125 46.9278 84.7321L42.2666 87.4234C42.2191 87.4516 42.165 87.4668 42.1098 87.4673Z" fill="#455A64"/>
<path d="M42.1264 84.776C42.057 84.7765 41.9893 84.7539 41.9341 84.7118C41.8788 84.6697 41.8391 84.6105 41.8212 84.5434C41.8033 84.4763 41.8081 84.4051 41.8349 84.3411C41.8618 84.277 41.9091 84.2237 41.9696 84.1894L54.7831 76.7931C54.8548 76.7556 54.9382 76.7472 55.0159 76.7697C55.0936 76.7923 55.1595 76.844 55.2 76.914C55.2405 76.9841 55.2524 77.067 55.2331 77.1456C55.2139 77.2242 55.165 77.2923 55.0967 77.3357L42.2989 84.7227C42.2479 84.757 42.1879 84.7755 42.1264 84.776Z" fill="#455A64"/>
<path d="M40.545 70.1339C40.545 71.9344 39.2903 74.1207 37.722 75.0209C36.1536 75.9211 34.8989 75.1903 34.8989 73.3929C34.8989 71.5956 36.1536 69.4062 37.722 68.5059C39.2903 67.6057 40.545 68.3366 40.545 70.1339Z" fill="#30319D"/>
<path d="M42.1103 71.1941C42.0418 71.1934 41.9755 71.1703 41.9214 71.1284C41.8672 71.0864 41.8283 71.0279 41.8106 70.9618C41.7928 70.8957 41.7971 70.8256 41.8229 70.7622C41.8487 70.6988 41.8946 70.6456 41.9534 70.6106L46.6146 67.9193C46.6503 67.8966 46.6902 67.8814 46.732 67.8745C46.7737 67.8677 46.8164 67.8693 46.8575 67.8794C46.8986 67.8894 46.9372 67.9077 46.9711 67.9331C47.0049 67.9585 47.0333 67.9904 47.0544 68.0271C47.0756 68.0637 47.0892 68.1042 47.0943 68.1462C47.0994 68.1882 47.0959 68.2308 47.0841 68.2714C47.0723 68.3121 47.0525 68.3499 47.0257 68.3826C46.9989 68.4154 46.9658 68.4424 46.9283 68.462L42.2671 71.1533C42.2193 71.1804 42.1652 71.1944 42.1103 71.1941Z" fill="#455A64"/>
<path d="M42.1254 68.5028C42.0707 68.5025 42.017 68.4878 41.9696 68.4603C41.9223 68.4328 41.883 68.3934 41.8556 68.346C41.8145 68.2743 41.8033 68.1893 41.8244 68.1095C41.8456 68.0296 41.8974 67.9613 41.9686 67.9194L54.7821 60.523C54.8537 60.4819 54.9387 60.4706 55.0186 60.4918C55.0985 60.5129 55.1668 60.5647 55.2087 60.6359C55.2295 60.6715 55.2432 60.7109 55.2488 60.7518C55.2544 60.7927 55.2519 60.8343 55.2414 60.8742C55.2309 60.9142 55.2126 60.9516 55.1876 60.9845C55.1627 61.0173 55.1314 61.0449 55.0957 61.0657L42.2979 68.462C42.2455 68.4919 42.1856 68.5061 42.1254 68.5028Z" fill="#455A64"/>
<path d="M48.772 73.691V74.4774L46.8011 75.6101V74.8237L48.772 73.691ZM47.2485 73.6622L48.1562 73.1405V76.6597C48.1562 76.7564 48.169 76.8244 48.1946 76.8638C48.2201 76.9015 48.2556 76.918 48.3011 76.9131C48.348 76.9075 48.4019 76.8871 48.463 76.852C48.5056 76.8275 48.5483 76.7989 48.5909 76.7663C48.6335 76.7319 48.6662 76.7058 48.6889 76.6878L48.8316 77.3848C48.7862 77.4273 48.7223 77.4829 48.6399 77.5516C48.5575 77.6218 48.4573 77.6933 48.3394 77.766C48.1207 77.9015 47.9289 77.9782 47.7641 77.9959C47.6008 78.0127 47.4737 77.9662 47.3827 77.8563C47.2918 77.7463 47.2471 77.5672 47.2485 77.319V73.6622ZM48.5227 85.6828C48.186 85.8763 47.8962 85.9642 47.6533 85.9465C47.4119 85.9264 47.2258 85.8088 47.0951 85.594C46.9644 85.3774 46.8991 85.0701 46.8991 84.672C46.8991 84.2837 46.9644 83.9054 47.0951 83.537C47.2258 83.1686 47.4097 82.8343 47.647 82.5342C47.8856 82.2332 48.1654 81.9904 48.4865 81.8059C48.7024 81.6818 48.9034 81.6065 49.0895 81.5798C49.277 81.5507 49.4403 81.5756 49.5795 81.6545C49.7202 81.7326 49.8295 81.8696 49.9077 82.0656C49.9858 82.2599 50.0248 82.5176 50.0248 82.8387V83.1262L47.2613 84.7145V84.0657L49.1704 82.9685C49.1704 82.8178 49.142 82.7006 49.0852 82.6169C49.0284 82.5332 48.9495 82.4876 48.8487 82.48C48.7493 82.47 48.6335 82.5029 48.5014 82.5789C48.3636 82.6581 48.2414 82.7651 48.1349 82.9001C48.0298 83.0326 47.9474 83.1774 47.8877 83.3346C47.8281 83.4901 47.7975 83.6428 47.7961 83.7927V84.4096C47.7961 84.5964 47.8259 84.7406 47.8856 84.8423C47.9467 84.9432 48.0326 84.9986 48.1434 85.0087C48.2542 85.0187 48.3856 84.9801 48.5376 84.8927C48.6385 84.8348 48.7308 84.7653 48.8146 84.6844C48.8984 84.6034 48.9701 84.5131 49.0298 84.4132C49.0895 84.3134 49.1349 84.207 49.1662 84.094L50.0057 83.6755C49.9631 83.9326 49.8757 84.186 49.7436 84.4355C49.6129 84.6827 49.4439 84.9142 49.2365 85.13C49.0305 85.3434 48.7926 85.5277 48.5227 85.6828ZM48.2372 93.8346C47.9886 93.9775 47.7634 94.0331 47.5617 94.0016C47.3614 93.9676 47.2023 93.8403 47.0844 93.6197C46.968 93.3967 46.9097 93.0746 46.9097 92.6536C46.9097 92.221 46.9701 91.8267 47.0908 91.4706C47.2116 91.1129 47.3721 90.8052 47.5724 90.5475C47.7741 90.2874 47.995 90.0884 48.235 89.9504C48.4183 89.8451 48.571 89.7934 48.6931 89.7953C48.8167 89.7947 48.9162 89.826 48.9914 89.8893C49.0682 89.95 49.1264 90.0198 49.1662 90.0985L49.1939 90.0826V88.1903L50.0994 87.6698V92.7029L49.2045 93.2172V92.6127L49.1662 92.6347C49.1235 92.764 49.0632 92.9028 48.9851 93.0509C48.9083 93.1966 48.8082 93.3385 48.6846 93.4767C48.5625 93.6141 48.4133 93.7334 48.2372 93.8346ZM48.5248 92.8362C48.6711 92.7521 48.7947 92.6352 48.8956 92.4855C48.9978 92.3333 49.076 92.1582 49.1299 91.96C49.1853 91.7611 49.213 91.5494 49.213 91.3249C49.213 91.1005 49.1861 90.921 49.1321 90.7865C49.0781 90.6521 49 90.5692 48.8977 90.5379C48.7954 90.5065 48.6711 90.5329 48.5248 90.617C48.3757 90.7027 48.2499 90.8217 48.1477 90.9738C48.0454 91.126 47.968 91.2999 47.9154 91.4956C47.8629 91.6913 47.8366 91.8981 47.8366 92.116C47.8366 92.3355 47.8629 92.5146 47.9154 92.6531C47.9694 92.7892 48.0468 92.8758 48.1477 92.9128C48.2499 92.9475 48.3757 92.9219 48.5248 92.8362Z" fill="#455A64"/>
<path d="M63.7218 46.7684L36.1438 62.6904C36.0183 62.7632 35.8758 62.8017 35.7307 62.8018C35.5856 62.802 35.443 62.7639 35.3173 62.6913C35.1917 62.6188 35.0874 62.5144 35.0149 62.3887C34.9425 62.2629 34.9045 62.1203 34.9048 61.9752V44.5257C34.9044 44.1749 34.9964 43.8302 35.1715 43.5263C35.3466 43.2223 35.5987 42.9698 35.9023 42.7942L63.4803 26.8722C63.6059 26.8004 63.7482 26.7628 63.893 26.7631C64.0377 26.7634 64.1798 26.8016 64.3052 26.874C64.4305 26.9463 64.5347 27.0503 64.6074 27.1754C64.68 27.3006 64.7186 27.4426 64.7193 27.5874V45.0463C64.7186 45.3956 64.6261 45.7386 64.451 46.0409C64.276 46.3431 64.0245 46.594 63.7218 46.7684Z" fill="#30319D"/>
<path opacity="0.5" d="M63.7218 46.7684L36.1438 62.6904C36.0183 62.7632 35.8758 62.8017 35.7307 62.8018C35.5856 62.802 35.443 62.7639 35.3173 62.6913C35.1917 62.6188 35.0874 62.5144 35.0149 62.3887C34.9425 62.2629 34.9045 62.1203 34.9048 61.9752V44.5257C34.9044 44.1749 34.9964 43.8302 35.1715 43.5263C35.3466 43.2223 35.5987 42.9698 35.9023 42.7942L63.4803 26.8722C63.6059 26.8004 63.7482 26.7628 63.893 26.7631C64.0377 26.7634 64.1798 26.8016 64.3052 26.874C64.4305 26.9463 64.5347 27.0503 64.6074 27.1754C64.68 27.3006 64.7186 27.4426 64.7193 27.5874V45.0463C64.7186 45.3956 64.6261 45.7386 64.451 46.0409C64.276 46.3431 64.0245 46.594 63.7218 46.7684Z" fill="white"/>
<path d="M54.0119 49.6118C56.1634 45.8851 56.1636 41.8571 54.0122 40.615C51.8608 39.3729 48.3726 41.3871 46.221 45.1137C44.0694 48.8404 44.0692 52.8684 46.2206 54.1105C48.372 55.3526 51.8603 53.3384 54.0119 49.6118Z" fill="white"/>
<path d="M64.7224 38.4938V45.0464C64.7211 45.3959 64.628 45.739 64.4524 46.0412C64.2768 46.3434 64.0249 46.5942 63.7218 46.7684L36.1407 62.6904C36.0154 62.7635 35.873 62.8021 35.728 62.8023C35.583 62.8026 35.4405 62.7645 35.315 62.6918C35.1895 62.6192 35.0854 62.5147 35.0134 62.3888C34.9413 62.2629 34.9039 62.1203 34.9048 61.9752V55.7018L64.7224 38.4938Z" fill="#30319D"/>
<path d="M43.1395 55.9967C42.9845 55.9885 42.8377 55.9251 42.7254 55.8179C42.5968 55.7175 42.5498 55.683 42.3804 55.7771C42.3601 55.7971 42.3356 55.8123 42.3086 55.8214C42.2816 55.8305 42.2529 55.8334 42.2246 55.8298C42.1963 55.8262 42.1693 55.8163 42.1454 55.8007C42.1215 55.7852 42.1015 55.7644 42.0869 55.7399C42.0722 55.7155 42.0633 55.6881 42.0608 55.6597C42.0583 55.6313 42.0622 55.6027 42.0724 55.5761C42.0825 55.5495 42.0986 55.5255 42.1193 55.506C42.1401 55.4865 42.165 55.4719 42.1922 55.4635C42.3074 55.3828 42.4474 55.3455 42.5875 55.3581C42.7275 55.3708 42.8586 55.4325 42.9576 55.5325C43.0862 55.6328 43.1332 55.6705 43.3026 55.5732C43.5205 55.4149 43.6882 55.1971 43.7857 54.9459C43.9135 54.6321 44.1319 54.3635 44.413 54.1743C44.5277 54.0938 44.6672 54.0567 44.8067 54.0693C44.9463 54.0819 45.0768 54.1436 45.1752 54.2433C45.307 54.3468 45.354 54.3813 45.5234 54.284C45.7416 54.1267 45.9085 53.9085 46.0033 53.6567C46.1318 53.3424 46.35 53.073 46.6307 52.8819C46.7461 52.8019 46.886 52.765 47.0259 52.7776C47.1657 52.7902 47.2968 52.8515 47.396 52.9509C47.5246 53.0513 47.5748 53.089 47.7411 52.9917C47.7845 52.9676 47.8356 52.9613 47.8836 52.9741C47.9316 52.987 47.9727 53.0181 47.9983 53.0607C48.0106 53.0821 48.0187 53.1058 48.0219 53.1303C48.0251 53.1548 48.0235 53.1797 48.0171 53.2036C48.0107 53.2275 47.9996 53.2499 47.9845 53.2695C47.9695 53.2891 47.9507 53.3056 47.9293 53.3179C47.814 53.3986 47.674 53.4359 47.534 53.4233C47.3939 53.4106 47.2628 53.3489 47.1639 53.2489C47.0353 53.1486 46.9851 53.1109 46.8189 53.2082C46.5992 53.3648 46.4311 53.5831 46.3358 53.8355C46.2068 54.1486 45.9887 54.4169 45.7085 54.6071C45.5932 54.6878 45.4532 54.7251 45.3132 54.7125C45.1731 54.6998 45.042 54.6381 44.9431 54.5381C44.8145 54.4377 44.7643 54.4001 44.5981 54.4973C44.3787 54.6543 44.2106 54.8725 44.115 55.1247C43.988 55.4398 43.7695 55.7097 43.4877 55.8995C43.3822 55.9621 43.2621 55.9956 43.1395 55.9967Z" fill="#30319D"/>
<g opacity="0.5">
<path d="M43.1395 55.9967C42.9845 55.9885 42.8377 55.9251 42.7254 55.8179C42.5968 55.7175 42.5498 55.683 42.3804 55.7771C42.3601 55.7971 42.3356 55.8123 42.3086 55.8214C42.2816 55.8305 42.2529 55.8334 42.2246 55.8298C42.1963 55.8262 42.1693 55.8163 42.1454 55.8007C42.1215 55.7852 42.1015 55.7644 42.0869 55.7399C42.0722 55.7155 42.0633 55.6881 42.0608 55.6597C42.0583 55.6313 42.0622 55.6027 42.0724 55.5761C42.0825 55.5495 42.0986 55.5255 42.1193 55.506C42.1401 55.4865 42.165 55.4719 42.1922 55.4635C42.3074 55.3828 42.4474 55.3455 42.5875 55.3581C42.7275 55.3708 42.8586 55.4325 42.9576 55.5325C43.0862 55.6328 43.1332 55.6705 43.3026 55.5732C43.5205 55.4149 43.6882 55.1971 43.7857 54.9459C43.9135 54.6321 44.1319 54.3635 44.413 54.1743C44.5277 54.0938 44.6672 54.0567 44.8067 54.0693C44.9463 54.0819 45.0768 54.1436 45.1752 54.2433C45.307 54.3468 45.354 54.3813 45.5234 54.284C45.7416 54.1267 45.9085 53.9085 46.0033 53.6567C46.1318 53.3424 46.35 53.073 46.6307 52.8819C46.7461 52.8019 46.886 52.765 47.0259 52.7776C47.1657 52.7902 47.2968 52.8515 47.396 52.9509C47.5246 53.0513 47.5748 53.089 47.7411 52.9917C47.7845 52.9676 47.8356 52.9613 47.8836 52.9741C47.9316 52.987 47.9727 53.0181 47.9983 53.0607C48.0106 53.0821 48.0187 53.1058 48.0219 53.1303C48.0251 53.1548 48.0235 53.1797 48.0171 53.2036C48.0107 53.2275 47.9996 53.2499 47.9845 53.2695C47.9695 53.2891 47.9507 53.3056 47.9293 53.3179C47.814 53.3986 47.674 53.4359 47.534 53.4233C47.3939 53.4106 47.2628 53.3489 47.1639 53.2489C47.0353 53.1486 46.9851 53.1109 46.8189 53.2082C46.5992 53.3648 46.4311 53.5831 46.3358 53.8355C46.2068 54.1486 45.9887 54.4169 45.7085 54.6071C45.5932 54.6878 45.4532 54.7251 45.3132 54.7125C45.1731 54.6998 45.042 54.6381 44.9431 54.5381C44.8145 54.4377 44.7643 54.4001 44.5981 54.4973C44.3787 54.6543 44.2106 54.8725 44.115 55.1247C43.988 55.4398 43.7695 55.7097 43.4877 55.8995C43.3822 55.9621 43.2621 55.9956 43.1395 55.9967Z" fill="white"/>
</g>
<path d="M56.9725 48.1737C56.8177 48.1647 56.6711 48.1014 56.5585 47.9949C56.4267 47.8946 56.3797 47.8569 56.2134 47.9542C56.1931 47.9742 56.1686 47.9893 56.1416 47.9984C56.1146 48.0076 56.0859 48.0104 56.0576 48.0069C56.0294 48.0033 56.0023 47.9933 55.9784 47.9778C55.9546 47.9622 55.9345 47.9414 55.9199 47.917C55.9052 47.8926 55.8963 47.8651 55.8938 47.8367C55.8913 47.8084 55.8953 47.7798 55.9054 47.7532C55.9155 47.7265 55.9316 47.7026 55.9523 47.6831C55.9731 47.6635 55.998 47.649 56.0252 47.6405C56.1401 47.5599 56.2799 47.5228 56.4196 47.5361C56.5593 47.5493 56.6897 47.6119 56.7874 47.7126C56.916 47.813 56.9662 47.8507 57.1325 47.7534C57.3514 47.5961 57.5194 47.378 57.6155 47.1261C57.7434 46.8123 57.9618 46.5437 58.2429 46.3544C58.3583 46.2744 58.4982 46.2375 58.6381 46.2501C58.778 46.2627 58.909 46.3241 59.0082 46.4234C59.1368 46.5238 59.187 46.5615 59.3533 46.4642C59.5712 46.3059 59.7389 46.0881 59.8363 45.8369C59.9642 45.5231 60.1826 45.2545 60.4637 45.0653C60.5789 44.9846 60.7189 44.9473 60.859 44.9599C60.999 44.9726 61.1301 45.0343 61.229 45.1343C61.3576 45.2346 61.4078 45.2723 61.5741 45.175C61.5955 45.1627 61.6191 45.1546 61.6436 45.1514C61.6682 45.1482 61.6931 45.1498 61.717 45.1562C61.7409 45.1626 61.7632 45.1737 61.7829 45.1888C61.8025 45.2038 61.8189 45.2226 61.8313 45.244C61.8441 45.2654 61.8524 45.289 61.8559 45.3136C61.8594 45.3382 61.8578 45.3633 61.8514 45.3873C61.8449 45.4113 61.8337 45.4338 61.8184 45.4533C61.8031 45.4729 61.784 45.4892 61.7623 45.5013C61.6473 45.5811 61.508 45.6179 61.3686 45.6053C61.2293 45.5927 61.0988 45.5314 61 45.4322C60.8683 45.3319 60.8212 45.2942 60.6519 45.3915C60.4339 45.5498 60.2662 45.7676 60.1688 46.0188C60.0409 46.3326 59.8226 46.6012 59.5415 46.7904C59.426 46.8705 59.2862 46.9074 59.1463 46.8948C59.0064 46.8822 58.8754 46.8208 58.7761 46.7214C58.6475 46.6211 58.6004 46.5834 58.4311 46.6807C58.2127 46.8386 58.0449 47.0566 57.948 47.308C57.821 47.6231 57.6025 47.893 57.3207 48.0828C57.2141 48.1418 57.0943 48.173 56.9725 48.1737Z" fill="#30319D"/>
<g opacity="0.5">
<path d="M56.9715 48.1737C56.8168 48.1647 56.6702 48.1014 56.5575 47.9949C56.4257 47.8946 56.3787 47.8569 56.2124 47.9542C56.1921 47.9742 56.1676 47.9893 56.1406 47.9984C56.1136 48.0076 56.0849 48.0104 56.0566 48.0069C56.0284 48.0033 56.0013 47.9933 55.9774 47.9778C55.9536 47.9622 55.9336 47.9414 55.9189 47.917C55.9043 47.8926 55.8953 47.8651 55.8928 47.8367C55.8903 47.8084 55.8943 47.7798 55.9044 47.7532C55.9146 47.7265 55.9306 47.7026 55.9514 47.6831C55.9721 47.6635 55.997 47.649 56.0242 47.6405C56.1391 47.5599 56.2789 47.5228 56.4186 47.5361C56.5583 47.5493 56.6888 47.6119 56.7865 47.7126C56.9151 47.813 56.9652 47.8507 57.1315 47.7534C57.3505 47.5961 57.5184 47.378 57.6145 47.1261C57.7424 46.8123 57.9608 46.5437 58.2419 46.3544C58.3573 46.2744 58.4972 46.2375 58.6371 46.2501C58.777 46.2627 58.908 46.3241 59.0072 46.4234C59.1359 46.5238 59.186 46.5615 59.3523 46.4642C59.5702 46.3059 59.7379 46.0881 59.8353 45.8369C59.9632 45.5231 60.1816 45.2545 60.4627 45.0653C60.5779 44.9846 60.7179 44.9473 60.858 44.9599C60.998 44.9726 61.1291 45.0343 61.228 45.1343C61.3567 45.2346 61.4068 45.2723 61.5731 45.175C61.5945 45.1627 61.6181 45.1546 61.6427 45.1514C61.6672 45.1482 61.6921 45.1498 61.716 45.1562C61.7399 45.1626 61.7623 45.1737 61.7819 45.1888C61.8015 45.2038 61.8179 45.2226 61.8303 45.244C61.8431 45.2654 61.8515 45.289 61.8549 45.3136C61.8584 45.3382 61.8568 45.3633 61.8504 45.3873C61.844 45.4113 61.8327 45.4338 61.8174 45.4533C61.8021 45.4729 61.783 45.4892 61.7613 45.5013C61.6463 45.5811 61.507 45.6179 61.3676 45.6053C61.2283 45.5927 61.0978 45.5314 60.9991 45.4322C60.8673 45.3319 60.8203 45.2942 60.6509 45.3915C60.4329 45.5498 60.2652 45.7676 60.1678 46.0188C60.04 46.3326 59.8216 46.6012 59.5405 46.7904C59.4251 46.8705 59.2852 46.9074 59.1453 46.8948C59.0054 46.8822 58.8744 46.8208 58.7751 46.7214C58.6465 46.6211 58.5995 46.5834 58.4301 46.6807C58.2118 46.8386 58.044 47.0566 57.947 47.308C57.82 47.6231 57.6015 47.893 57.3197 48.0828C57.2131 48.1418 57.0934 48.173 56.9715 48.1737Z" fill="white"/>
</g>
<path d="M48.1926 51.4296C48.0384 51.4209 47.892 51.3588 47.7786 51.2539C47.65 51.1536 47.5998 51.1159 47.4335 51.2131C47.3901 51.2373 47.339 51.2436 47.291 51.2307C47.243 51.2179 47.2018 51.1868 47.1763 51.1441C47.1635 51.1228 47.1552 51.0992 47.1517 51.0746C47.1482 51.0499 47.1498 51.0249 47.1562 51.0009C47.1627 50.9769 47.1739 50.9544 47.1892 50.9348C47.2045 50.9153 47.2236 50.899 47.2453 50.8869C47.3605 50.8063 47.5006 50.769 47.6406 50.7816C47.7807 50.7942 47.9118 50.856 48.0107 50.9559C48.1393 51.0563 48.1863 51.094 48.3557 50.9967C48.5733 50.8387 48.74 50.6207 48.8356 50.3694C48.9648 50.0555 49.1828 49.7862 49.463 49.5946C49.5783 49.5137 49.7187 49.4766 49.8589 49.4898C49.9992 49.503 50.1302 49.5658 50.2284 49.6667C50.357 49.7671 50.4071 49.8048 50.5734 49.7075C50.7924 49.5502 50.9603 49.3321 51.0564 49.0802C51.1844 48.7656 51.4027 48.496 51.6838 48.3054C51.7991 48.2245 51.9395 48.1874 52.0797 48.2006C52.22 48.2138 52.3509 48.2766 52.4491 48.3776C52.5809 48.4779 52.6279 48.5156 52.7973 48.4183C52.8176 48.3983 52.8422 48.3832 52.8692 48.3741C52.8961 48.3649 52.9249 48.3621 52.9531 48.3656C52.9814 48.3692 53.0085 48.3792 53.0323 48.3947C53.0562 48.4103 53.0762 48.4311 53.0908 48.4555C53.1055 48.4799 53.1144 48.5074 53.1169 48.5358C53.1194 48.5641 53.1155 48.5927 53.1053 48.6193C53.0952 48.646 53.0791 48.6699 53.0584 48.6895C53.0376 48.709 53.0127 48.7235 52.9855 48.732C52.8708 48.8139 52.7305 48.8519 52.5901 48.8393C52.4497 48.8266 52.3184 48.7641 52.2202 48.663C52.0916 48.5626 52.0414 48.525 51.872 48.6222C51.6548 48.7806 51.4882 48.9985 51.3921 49.2496C51.2636 49.563 51.0453 49.8314 50.7647 50.0212C50.6502 50.1022 50.5106 50.1398 50.3709 50.1271C50.2312 50.1145 50.1006 50.0525 50.0025 49.9522C49.8708 49.8518 49.8237 49.8142 49.6543 49.9114C49.4365 50.0692 49.2697 50.2873 49.1744 50.5388C49.0454 50.8519 48.8273 51.1202 48.5471 51.3104C48.4421 51.3818 48.3195 51.4231 48.1926 51.4296Z" fill="#30319D"/>
<g opacity="0.5">
<path d="M48.1926 51.4296C48.0384 51.4209 47.892 51.3588 47.7786 51.2539C47.65 51.1536 47.5998 51.1159 47.4335 51.2131C47.3901 51.2373 47.339 51.2436 47.291 51.2307C47.243 51.2179 47.2018 51.1868 47.1763 51.1441C47.1635 51.1228 47.1552 51.0992 47.1517 51.0746C47.1482 51.0499 47.1498 51.0249 47.1562 51.0009C47.1627 50.9769 47.1739 50.9544 47.1892 50.9348C47.2045 50.9153 47.2236 50.899 47.2453 50.8869C47.3605 50.8063 47.5006 50.769 47.6406 50.7816C47.7807 50.7942 47.9118 50.856 48.0107 50.9559C48.1393 51.0563 48.1863 51.094 48.3557 50.9967C48.5733 50.8387 48.74 50.6207 48.8356 50.3694C48.9648 50.0555 49.1828 49.7862 49.463 49.5946C49.5783 49.5137 49.7187 49.4766 49.8589 49.4898C49.9992 49.503 50.1302 49.5658 50.2284 49.6667C50.357 49.7671 50.4071 49.8048 50.5734 49.7075C50.7924 49.5502 50.9603 49.3321 51.0564 49.0802C51.1844 48.7656 51.4027 48.496 51.6838 48.3054C51.7991 48.2245 51.9395 48.1874 52.0797 48.2006C52.22 48.2138 52.3509 48.2766 52.4491 48.3776C52.5809 48.4779 52.6279 48.5156 52.7973 48.4183C52.8176 48.3983 52.8422 48.3832 52.8692 48.3741C52.8961 48.3649 52.9249 48.3621 52.9531 48.3656C52.9814 48.3692 53.0085 48.3792 53.0323 48.3947C53.0562 48.4103 53.0762 48.4311 53.0908 48.4555C53.1055 48.4799 53.1144 48.5074 53.1169 48.5358C53.1194 48.5641 53.1155 48.5927 53.1053 48.6193C53.0952 48.646 53.0791 48.6699 53.0584 48.6895C53.0376 48.709 53.0127 48.7235 52.9855 48.732C52.8708 48.8139 52.7305 48.8519 52.5901 48.8393C52.4497 48.8266 52.3184 48.7641 52.2202 48.663C52.0916 48.5626 52.0414 48.525 51.872 48.6222C51.6548 48.7806 51.4882 48.9985 51.3921 49.2496C51.2636 49.563 51.0453 49.8314 50.7647 50.0212C50.6502 50.1022 50.5106 50.1398 50.3709 50.1271C50.2312 50.1145 50.1006 50.0525 50.0025 49.9522C49.8708 49.8518 49.8237 49.8142 49.6543 49.9114C49.4365 50.0692 49.2697 50.2873 49.1744 50.5388C49.0454 50.8519 48.8273 51.1202 48.5471 51.3104C48.4421 51.3818 48.3195 51.4231 48.1926 51.4296Z" fill="white"/>
</g>
<path d="M39.0867 56.5331C38.9712 56.6134 38.8309 56.6501 38.6909 56.6369C38.5508 56.6237 38.4199 56.5614 38.3214 56.461C38.1896 56.3637 38.1457 56.3261 37.9763 56.4233C37.7582 56.5823 37.5896 56.7998 37.4901 57.0507C37.3618 57.365 37.1436 57.6345 36.8628 57.8254C36.7468 57.9045 36.6068 57.9405 36.4671 57.9274C36.3274 57.9142 36.1966 57.8526 36.0974 57.7533C35.9657 57.6529 35.9218 57.6153 35.7493 57.7125C35.5325 57.8721 35.3651 58.0895 35.2662 58.3399C35.1735 58.5441 35.0509 58.7333 34.9023 58.9013V58.2301L34.9337 58.1673C35.0621 57.8538 35.2804 57.5854 35.5611 57.3957C35.6758 57.3138 35.8161 57.2758 35.9565 57.2884C36.0969 57.3011 36.2282 57.3636 36.3264 57.4647C36.455 57.5651 36.5052 57.6059 36.6715 57.5055C36.8915 57.3493 37.0597 57.1308 37.1545 56.8782C37.2825 56.5636 37.5008 56.294 37.7819 56.1034C37.8979 56.0229 38.0387 55.986 38.1793 55.9992C38.3199 56.0124 38.4513 56.0749 38.5503 56.1755C38.6758 56.2728 38.726 56.3104 38.8954 56.2132C38.9383 56.1892 38.989 56.183 39.0365 56.1959C39.084 56.2088 39.1245 56.2397 39.1495 56.2822C39.1738 56.3239 39.1809 56.3735 39.1692 56.4204C39.1575 56.4673 39.1279 56.5078 39.0867 56.5331Z" fill="#30319D"/>
<g opacity="0.5">
<path d="M39.0853 56.5331C38.9697 56.6134 38.8295 56.6501 38.6894 56.6369C38.5493 56.6237 38.4184 56.5614 38.3199 56.461C38.1882 56.3637 38.1442 56.3261 37.9749 56.4233C37.7567 56.5823 37.5882 56.7998 37.4887 57.0507C37.3604 57.365 37.1421 57.6345 36.8613 57.8254C36.7453 57.9045 36.6054 57.9405 36.4656 57.9274C36.3259 57.9142 36.1951 57.8526 36.096 57.7533C35.9642 57.6529 35.9203 57.6153 35.7478 57.7125C35.5311 57.8721 35.3637 58.0895 35.2647 58.3399C35.172 58.5441 35.0494 58.7333 34.9009 58.9013V58.2301L34.9322 58.1673C35.0606 57.8538 35.2789 57.5854 35.5596 57.3957C35.6744 57.3138 35.8146 57.2758 35.9551 57.2884C36.0955 57.3011 36.2267 57.3636 36.325 57.4647C36.4536 57.5651 36.5037 57.6059 36.67 57.5055C36.89 57.3493 37.0582 57.1308 37.153 56.8782C37.281 56.5636 37.4993 56.294 37.7804 56.1034C37.8964 56.0229 38.0372 55.986 38.1778 55.9992C38.3184 56.0124 38.4498 56.0749 38.5489 56.1755C38.6744 56.2728 38.7245 56.3104 38.8939 56.2132C38.9369 56.1892 38.9875 56.183 39.035 56.1959C39.0825 56.2088 39.1231 56.2397 39.148 56.2822C39.1724 56.3239 39.1795 56.3735 39.1677 56.4204C39.156 56.4673 39.1264 56.5078 39.0853 56.5331Z" fill="white"/>
</g>
<path d="M64.7233 40.6581V41.1223C64.5781 41.2733 64.4603 41.4485 64.3751 41.6399C64.2453 41.9534 64.0274 42.2225 63.7477 42.4146C63.6327 42.4947 63.493 42.5313 63.3534 42.5181C63.2139 42.5049 63.0835 42.4427 62.9855 42.3425C62.8538 42.2453 62.8067 42.2045 62.6373 42.3017C62.4198 42.4605 62.2522 42.6781 62.1543 42.9291C62.0281 43.2447 61.8094 43.5148 61.5269 43.7038C61.4227 43.7702 61.3023 43.8071 61.1788 43.8105C61.0244 43.8023 60.8779 43.7401 60.7647 43.6348C60.6361 43.5344 60.5859 43.4937 60.4165 43.594C60.3765 43.6055 60.3338 43.6033 60.2951 43.5878C60.2565 43.5724 60.224 43.5445 60.2029 43.5087C60.1817 43.4728 60.173 43.431 60.1782 43.3896C60.1834 43.3483 60.2021 43.3099 60.2315 43.2804C60.347 43.2016 60.4864 43.1656 60.6256 43.1788C60.7648 43.192 60.895 43.2534 60.9937 43.3525C61.1223 43.456 61.1725 43.4905 61.3419 43.3933C61.5597 43.2355 61.7265 43.0174 61.8218 42.766C61.9527 42.454 62.1704 42.1861 62.4491 41.9943C62.5648 41.9149 62.7045 41.8783 62.8443 41.8909C62.984 41.9035 63.1149 41.9645 63.2145 42.0633C63.3431 42.1637 63.3933 42.2045 63.5595 42.1072C63.7776 41.949 63.9453 41.7312 64.0426 41.4799C64.1706 41.1653 64.3889 40.8957 64.6699 40.7051L64.7233 40.6581Z" fill="#30319D"/>
<g opacity="0.5">
<path d="M64.7228 40.6581V41.1223C64.5776 41.2733 64.4598 41.4485 64.3746 41.6399C64.2449 41.9534 64.0269 42.2225 63.7473 42.4146C63.6322 42.4947 63.4925 42.5313 63.3529 42.5181C63.2134 42.5049 63.083 42.4427 62.985 42.3425C62.8533 42.2453 62.8062 42.2045 62.6369 42.3017C62.4193 42.4605 62.2517 42.6781 62.1538 42.9291C62.0277 43.2447 61.809 43.5148 61.5265 43.7038C61.4222 43.7702 61.3018 43.8071 61.1783 43.8105C61.0239 43.8023 60.8774 43.7401 60.7642 43.6348C60.6356 43.5344 60.5854 43.4937 60.4161 43.594C60.376 43.6055 60.3333 43.6033 60.2947 43.5878C60.256 43.5724 60.2235 43.5445 60.2024 43.5087C60.1812 43.4728 60.1726 43.431 60.1777 43.3896C60.1829 43.3483 60.2016 43.3099 60.231 43.2804C60.3465 43.2016 60.4859 43.1656 60.6251 43.1788C60.7643 43.192 60.8946 43.2534 60.9932 43.3525C61.1218 43.456 61.172 43.4905 61.3414 43.3933C61.5592 43.2355 61.726 43.0174 61.8213 42.766C61.9522 42.454 62.1699 42.1861 62.4487 41.9943C62.5643 41.9149 62.704 41.8783 62.8438 41.8909C62.9835 41.9035 63.1144 41.9645 63.214 42.0633C63.3426 42.1637 63.3928 42.2045 63.559 42.1072C63.7771 41.949 63.9449 41.7312 64.0421 41.4799C64.1701 41.1653 64.3884 40.8957 64.6695 40.7051L64.7228 40.6581Z" fill="white"/>
</g>
<path d="M41.6332 44.5885L40.8615 45.0276V44.7547C40.8615 44.7359 40.8615 44.7171 40.8615 44.6983C40.8615 44.6795 40.8615 44.6606 40.8615 44.6418C40.8333 44.2811 40.5479 44.1431 40.2342 44.3281C40.0834 44.4213 39.954 44.5453 39.8546 44.692C39.7794 44.2027 39.3779 44.0239 38.8948 44.303C38.6108 44.4884 38.3745 44.7381 38.205 45.0318C38.0355 45.3255 37.9376 45.6551 37.9193 45.9937V46.5772C37.9194 46.6236 37.9073 46.6692 37.8842 46.7094C37.8611 46.7496 37.8277 46.783 37.7875 46.8061L37.3327 47.0728C37.2364 47.132 37.1569 47.2151 37.1019 47.314C37.047 47.4129 37.0185 47.5243 37.0191 47.6374C37.0193 47.6846 37.032 47.7309 37.0558 47.7717C37.0795 47.8125 37.1136 47.8464 37.1546 47.8699C37.1955 47.8934 37.242 47.9057 37.2892 47.9056C37.3364 47.9056 37.3828 47.8931 37.4237 47.8695L41.6394 45.4354C41.7496 45.3715 41.8413 45.2801 41.9056 45.1701C41.9699 45.0602 42.0047 44.9354 42.0064 44.8081C42.011 44.7627 42.0025 44.717 41.9818 44.6764C41.9612 44.6357 41.9294 44.6019 41.8901 44.5787C41.8508 44.5556 41.8058 44.5443 41.7602 44.546C41.7147 44.5477 41.6706 44.5625 41.6332 44.5885Z" fill="white"/>
<path d="M60.4911 34.4035L59.7195 34.8427V34.4506C59.6912 34.0867 59.4058 33.9487 59.0921 34.1369C58.9401 34.2284 58.8104 34.3527 58.7126 34.5008C58.6373 34.0083 58.2358 33.8326 57.7496 34.1118C57.4664 34.297 57.2308 34.5463 57.0619 34.8395C56.8929 35.1326 56.7954 35.4615 56.7772 35.7994V36.3859C56.7767 36.4322 56.7644 36.4776 56.7413 36.5177C56.7182 36.5578 56.6852 36.5913 56.6455 36.6149L56.1906 36.8784C56.0941 36.9374 56.0144 37.0205 55.9595 37.1194C55.9045 37.2183 55.8761 37.3298 55.877 37.443C55.8767 37.4905 55.8889 37.5372 55.9125 37.5785C55.9361 37.6197 55.9701 37.654 56.0111 37.6779C56.0522 37.7017 56.0988 37.7143 56.1463 37.7144C56.1938 37.7145 56.2405 37.702 56.2816 37.6783L60.4974 35.241C60.6075 35.1771 60.6992 35.0857 60.7636 34.9757C60.8279 34.8658 60.8626 34.7411 60.8644 34.6137C60.867 34.5691 60.857 34.5247 60.8356 34.4855C60.8142 34.4464 60.7822 34.414 60.7433 34.3921C60.7044 34.3702 60.6602 34.3596 60.6156 34.3617C60.571 34.3637 60.5278 34.3782 60.4911 34.4035Z" fill="white"/>
<path d="M43.1774 47.5464L42.6473 47.86V47.5934C42.6285 47.3456 42.4403 47.2484 42.2113 47.3801C42.1068 47.4442 42.017 47.5297 41.9478 47.631C41.8976 47.2954 41.6342 47.1731 41.2891 47.3644C41.0944 47.4918 40.9324 47.6632 40.8163 47.8649C40.7003 48.0665 40.6333 48.2927 40.621 48.525V48.9265C40.6206 48.9583 40.612 48.9894 40.596 49.0168C40.5801 49.0443 40.5574 49.0672 40.53 49.0833L40.2164 49.2653C40.1486 49.3051 40.0924 49.362 40.0534 49.4302C40.0143 49.4984 39.9937 49.5756 39.9937 49.6542C39.9939 49.6865 40.0025 49.7181 40.0187 49.7459C40.0348 49.7738 40.058 49.797 40.0859 49.8132C40.1138 49.8293 40.1454 49.8379 40.1777 49.8381C40.2099 49.8383 40.2416 49.83 40.2697 49.8142L43.1649 48.1423C43.242 48.0978 43.306 48.0338 43.3506 47.9567C43.3952 47.8797 43.4188 47.7922 43.419 47.7032C43.4215 47.6737 43.416 47.6441 43.403 47.6175C43.3901 47.5909 43.3701 47.5684 43.3453 47.5522C43.3205 47.5361 43.2917 47.5271 43.2622 47.526C43.2326 47.525 43.2033 47.532 43.1774 47.5464Z" fill="white"/>
<path d="M34.9935 67.6464C34.9611 67.6472 34.9291 67.6391 34.9009 67.6231C34.8728 67.6071 34.8495 67.5837 34.8335 67.5555C34.8094 67.5134 34.8028 67.4635 34.8151 67.4165C34.8275 67.3696 34.8577 67.3294 34.8994 67.3045L64.5414 50.1906C64.5835 50.1665 64.6334 50.1599 64.6803 50.1722C64.7273 50.1845 64.7675 50.2148 64.7923 50.2565C64.8048 50.2775 64.8129 50.3007 64.8163 50.3249C64.8197 50.349 64.8184 50.3736 64.8122 50.3972C64.8061 50.4208 64.7954 50.443 64.7807 50.4624C64.7659 50.4819 64.7475 50.4982 64.7265 50.5105L35.0845 67.6245C35.0564 67.6391 35.0252 67.6466 34.9935 67.6464Z" fill="#E0E0E0"/>
<path d="M34.9928 83.8601C34.952 83.8603 34.9123 83.8471 34.8798 83.8224C34.8473 83.7978 34.8239 83.7631 34.8132 83.7237C34.8024 83.6844 34.805 83.6426 34.8205 83.6049C34.8359 83.5671 34.8634 83.5356 34.8987 83.5151L64.5406 66.4011C64.5831 66.3773 64.6333 66.3711 64.6803 66.3841C64.7273 66.397 64.7673 66.4279 64.7916 66.4701C64.8039 66.4909 64.812 66.5139 64.8154 66.5378C64.8188 66.5617 64.8174 66.586 64.8112 66.6094C64.8051 66.6328 64.7944 66.6547 64.7797 66.6738C64.765 66.693 64.7467 66.7091 64.7257 66.7211L35.0837 83.835C35.0559 83.8506 35.0247 83.8592 34.9928 83.8601Z" fill="#E0E0E0"/>
<path d="M84.9309 50.1843C90.322 50.1843 94.6924 45.814 94.6924 40.4228C94.6924 35.0317 90.322 30.6614 84.9309 30.6614C79.5398 30.6614 75.1694 35.0317 75.1694 40.4228C75.1694 45.814 79.5398 50.1843 84.9309 50.1843Z" fill="#30319D"/>
<path d="M78.2527 45.3726C78.2527 45.3726 79.3129 50.1843 75.5488 50.1843C75.5488 50.1843 79.981 52.1102 81.5839 48.1674L78.2527 45.3726Z" fill="#30319D"/>
<path d="M85.6805 40.702C86.213 40.524 86.6648 40.1624 86.9551 39.6819C87.2455 39.2014 87.3554 38.6332 87.2652 38.0791C87.1751 37.5249 86.8908 37.0209 86.4631 36.6572C86.0354 36.2935 85.4923 36.0938 84.9309 36.0938C84.3694 36.0938 83.8263 36.2935 83.3986 36.6572C82.9709 37.0209 82.6866 37.5249 82.5965 38.0791C82.5063 38.6332 82.6162 39.2014 82.9066 39.6819C83.1969 40.1624 83.6487 40.524 84.1812 40.702C83.2542 40.8821 82.4186 41.3783 81.8168 42.106C81.215 42.8336 80.8843 43.7476 80.8813 44.6919C80.8813 44.7107 80.8813 44.7295 80.8813 44.7483H88.9992C88.9992 44.7295 88.9992 44.7107 88.9992 44.6919C88.9953 43.7449 88.662 42.8289 88.0565 42.1008C87.451 41.3728 86.6109 40.8782 85.6805 40.702Z" fill="white"/>
<path d="M74.7238 27.4933C78.9576 27.4933 82.3899 24.061 82.3899 19.8271C82.3899 15.5933 78.9576 12.161 74.7238 12.161C70.4899 12.161 67.0576 15.5933 67.0576 19.8271C67.0576 24.061 70.4899 27.4933 74.7238 27.4933Z" fill="#30319D"/>
<path d="M69.4828 23.7135C69.4828 23.7135 70.314 27.4776 67.3467 27.4776C67.3467 27.4776 70.8253 28.9895 72.0831 25.9092L69.4828 23.7135Z" fill="#30319D"/>
<path d="M76.781 17.0072C76.2352 17.0072 75.7119 17.224 75.326 17.6099C74.9401 17.9958 74.7233 18.5192 74.7233 19.0649C74.7233 18.5192 74.5065 17.9958 74.1206 17.6099C73.7347 17.224 73.2113 17.0072 72.6656 17.0072C72.1199 17.0072 71.5965 17.224 71.2106 17.6099C70.8247 17.9958 70.6079 18.5192 70.6079 19.0649C70.6079 22.4243 74.7233 23.7323 74.7233 23.7323C74.7233 23.7323 78.8387 22.4243 78.8387 19.0649C78.8387 18.5192 78.6219 17.9958 78.236 17.6099C77.8501 17.224 77.3267 17.0072 76.781 17.0072Z" fill="white"/>
<path d="M24.7421 82.7613C28.4378 79.0655 28.4378 73.0736 24.7421 69.3779C21.0463 65.6822 15.0544 65.6822 11.3587 69.3779C7.66296 73.0736 7.66296 79.0656 11.3587 82.7613C15.0544 86.457 21.0463 86.457 24.7421 82.7613Z" fill="#30319D"/>
<path d="M24.5201 80.8645C24.5201 80.8645 23.4944 85.5319 27.1581 85.5319C27.1581 85.5319 22.8608 87.3951 21.3081 83.5746L24.5201 80.8645Z" fill="#30319D"/>
<path d="M21.6729 72.6965H14.4271C14.097 72.6965 13.7802 72.8265 13.5454 73.0585C13.3105 73.2904 13.1765 73.6055 13.1724 73.9355V78.2015C13.1724 78.5342 13.3046 78.8534 13.5399 79.0887C13.7752 79.324 14.0943 79.4562 14.4271 79.4562H17.0839L18.1064 81.7397L19.0474 79.4562H21.6572C21.9899 79.4562 22.3091 79.324 22.5444 79.0887C22.7797 78.8534 22.9119 78.5342 22.9119 78.2015V73.9355C22.9078 73.6082 22.776 73.2954 22.5445 73.0639C22.313 72.8324 22.0002 72.7006 21.6729 72.6965ZM20.6189 77.2542H15.4433C15.3568 77.2542 15.2739 77.2198 15.2127 77.1586C15.1515 77.0975 15.1171 77.0145 15.1171 76.928C15.1171 76.8414 15.1515 76.7585 15.2127 76.6973C15.2739 76.6361 15.3568 76.6017 15.4433 76.6017H20.6189C20.7054 76.6017 20.7884 76.6361 20.8496 76.6973C20.9108 76.7585 20.9451 76.8414 20.9451 76.928C20.9451 77.0145 20.9108 77.0975 20.8496 77.1586C20.7884 77.2198 20.7054 77.2542 20.6189 77.2542ZM20.6189 75.1306H15.4433C15.4005 75.1306 15.3581 75.1222 15.3185 75.1058C15.2789 75.0894 15.243 75.0654 15.2127 75.0351C15.1824 75.0048 15.1584 74.9688 15.142 74.9292C15.1256 74.8897 15.1171 74.8472 15.1171 74.8044C15.1171 74.7616 15.1256 74.7191 15.142 74.6796C15.1584 74.64 15.1824 74.604 15.2127 74.5737C15.243 74.5434 15.2789 74.5194 15.3185 74.503C15.3581 74.4866 15.4005 74.4782 15.4433 74.4782H20.6189C20.7054 74.4782 20.7884 74.5126 20.8496 74.5737C20.9108 74.6349 20.9451 74.7179 20.9451 74.8044C20.9451 74.8909 20.9108 74.9739 20.8496 75.0351C20.7884 75.0963 20.7054 75.1306 20.6189 75.1306Z" fill="white"/>
</svg>
