<svg width="26" height="32" viewBox="0 0 26 32" fill="none" xmlns="http://www.w3.org/2000/svg">
<path d="M13.0002 0.416626C13.9304 0.416626 14.8515 0.599842 15.7109 0.955813C16.5703 1.31178 17.3511 1.83354 18.0089 2.49129C18.6666 3.14903 19.1884 3.9299 19.5444 4.78929C19.9003 5.64867 20.0835 6.56976 20.0835 7.49996V13.1666C20.0835 15.0452 19.3373 16.8469 18.0089 18.1753C16.6805 19.5037 14.8788 20.25 13.0002 20.25C11.1216 20.25 9.31992 19.5037 7.99153 18.1753C6.66315 16.8469 5.91687 15.0452 5.91687 13.1666V7.49996C5.91687 5.62134 6.66315 3.81967 7.99153 2.49129C9.31992 1.1629 11.1216 0.416626 13.0002 0.416626ZM0.328125 14.5833H3.18271C3.52596 16.9417 4.70686 19.0978 6.50937 20.6569C8.31189 22.2161 10.6155 23.0742 12.9988 23.0742C15.3821 23.0742 17.6857 22.2161 19.4882 20.6569C21.2907 19.0978 22.4716 16.9417 22.8149 14.5833H25.6709C25.3488 17.4573 24.0596 20.1366 22.0148 22.1816C19.9699 24.2267 17.2908 25.5162 14.4169 25.8387V31.5833H11.5835V25.8387C8.70932 25.5165 6.0299 24.2272 3.98479 22.182C1.93968 20.1369 0.650293 17.4575 0.328125 14.5833Z" fill="black"/>
</svg>
