<svg width="26" height="26" viewBox="0 0 26 26" fill="none" xmlns="http://www.w3.org/2000/svg">
<path d="M20.0259 20.0679C20.509 19.588 21.2835 19.588 21.7667 20.0679L24.96 22.6455H25.0155C25.6615 23.2985 25.6615 24.3573 25.0155 25.0103C24.3694 25.6633 23.322 25.6633 22.6759 25.0103L20.0259 21.9731L19.9253 21.8596C19.738 21.6225 19.6345 21.3269 19.6345 21.0205C19.6345 20.663 19.7754 20.3202 20.0259 20.0679ZM11.2221 0.5C14.0657 0.5 16.7929 1.6418 18.8037 3.6742C20.8145 5.70661 21.9441 8.46315 21.9441 11.3374C21.9441 17.3227 17.1437 22.1748 11.2221 22.1748C5.30043 22.1748 0.5 17.3227 0.5 11.3374C0.5 5.35207 5.30043 0.5 11.2221 0.5Z" fill="black"/>
</svg>
