<svg width="32" height="24" viewBox="0 0 32 24" fill="none" xmlns="http://www.w3.org/2000/svg">
<path d="M21.6665 0.666626C22.0422 0.666626 22.4026 0.815882 22.6682 1.08156C22.9339 1.34723 23.0832 1.70757 23.0832 2.08329V8.03329L30.4683 2.86246C30.5744 2.78802 30.699 2.74416 30.8284 2.73567C30.9578 2.72717 31.0871 2.75437 31.2021 2.81429C31.3171 2.8742 31.4135 2.96454 31.4807 3.07546C31.5479 3.18638 31.5833 3.31361 31.5832 3.44329V20.5566C31.5833 20.6863 31.5479 20.8135 31.4807 20.9245C31.4135 21.0354 31.3171 21.1257 31.2021 21.1856C31.0871 21.2456 30.9578 21.2727 30.8284 21.2643C30.699 21.2558 30.5744 21.2119 30.4683 21.1375L23.0832 15.9666V21.9166C23.0832 22.2924 22.9339 22.6527 22.6682 22.9184C22.4026 23.184 22.0422 23.3333 21.6665 23.3333H1.83317C1.45745 23.3333 1.09711 23.184 0.831436 22.9184C0.565759 22.6527 0.416504 22.2924 0.416504 21.9166V2.08329C0.416504 1.70757 0.565759 1.34723 0.831436 1.08156C1.09711 0.815882 1.45745 0.666626 1.83317 0.666626H21.6665ZM9.48317 7.50771C9.35254 7.50768 9.22591 7.55279 9.12471 7.6354C9.02351 7.71801 8.95396 7.83305 8.92784 7.96104L8.9165 8.07296V15.9241C8.91649 16.0159 8.93877 16.1063 8.98141 16.1875C9.02406 16.2688 9.0858 16.3385 9.16133 16.3906C9.23687 16.4427 9.32392 16.4757 9.41503 16.4868C9.50613 16.4978 9.59855 16.4865 9.68434 16.454L9.78775 16.403L15.9573 12.476C16.0293 12.4299 16.09 12.3682 16.1347 12.2954C16.1795 12.2226 16.2072 12.1406 16.2158 12.0555C16.2243 11.9705 16.2136 11.8847 16.1843 11.8044C16.155 11.7241 16.1079 11.6515 16.0466 11.592L15.9573 11.5211L9.78775 7.59413C9.69635 7.53747 9.59071 7.50798 9.48317 7.50913V7.50771Z" fill="black"/>
</svg>
